<svg xmlns="http://www.w3.org/2000/svg" width="436" height="420" fill="none"><g clip-path="url(#a)"><path fill="#4A56E2" d="m412.4 7.6.2 80.5c0 4.5-3.6 8.2-8.1 8.2l-127.7.3c-4.5 0-8.2-3.6-8.2-8.1L268.4 8c0-4.2 3.4-7.6 7.6-7.6L404.8 0c4.2 0 7.6 3.4 7.6 7.6Z"/><path fill="#A6A6A6" d="M391.8 76.8c0 4.1-3.3 7.5-7.5 7.5-4.1 0-7.5-3.3-7.5-7.5 0-4.1 3.3-7.5 7.5-7.5s7.5 3.3 7.5 7.5Z"/><path fill="#FFC727" d="M401.1 76.8c0 4.1-3.3 7.5-7.5 7.5-4.1 0-7.5-3.3-7.5-7.5 0-4.1 3.3-7.5 7.5-7.5 4.1 0 7.5 3.3 7.5 7.5ZM303.4 32.8h-18.6c-2.3 0-4.2-1.9-4.2-4.2V18.3c0-2.3 1.9-4.2 4.2-4.2h18.6c2.3 0 4.2 1.9 4.2 4.2v10.3c0 2.3-1.9 4.2-4.2 4.2Z"/><path fill="#fff" d="M395.8 24.1h-12.2c-2.8 0-5.1-2.3-5.1-5.1s2.3-5.1 5.1-5.1h12.2c2.8 0 5.1 2.3 5.1 5.1s-2.3 5.1-5.1 5.1Z"/><path fill="#F8F8F8" d="m279.7 49.9-1.1.7h-.1c-.1 0-.2-.1-.2-.1-.1-.1 0-.3.1-.4l1.5-.9c.1-.1.3 0 .4.1v7.4c0 .1-.1.3-.3.3-.1 0-.3-.1-.3-.3v-6.8ZM282.1 56.4l3.7-3.3c.4-.4.7-.9.7-1.5 0-.5-.2-1-.5-1.3-.4-.4-.9-.7-1.5-.7-.5 0-1 .2-1.4.5l-.4.3c-.1.1-.3.1-.4 0-.1-.1-.1-.3 0-.4l.4-.4c.5-.4 1.1-.7 1.7-.7.7 0 1.4.3 1.9.8s.7 1.1.7 1.7c0 .7-.3 1.4-.8 1.9l-3.1 2.8h3.7c.1 0 .3.1.3.3 0 .1-.1.3-.3.3h-4.4c-.1 0-.2 0-.2-.1-.2.1-.2-.1-.1-.2ZM293.5 49.5l-2 2.1c.5.1 1 .3 1.3.7.5.5.8 1.2.8 1.9a2.732 2.732 0 0 1-2.7 2.7c-.7 0-1.4-.3-1.9-.8-.1-.1-.1-.3 0-.4.1-.1.3-.1.4 0 .4.4.9.6 1.5.6.5 0 1.1-.2 1.5-.6.4-.4.6-1 .6-1.5s-.2-1.1-.6-1.5c-.4-.4-.9-.6-1.5-.6-.1 0-.2 0-.2-.1-.1-.1-.1-.3 0-.4l1.9-2h-3c-.2 0-.3-.1-.3-.3 0-.2.1-.3.3-.3h3.7c.2 0 .3.1.3.3 0 0-.1.1-.1.2ZM300.1 55.2h-4.2c-.1 0-.1 0-.2-.1s-.1-.3 0-.4l4.5-5.7c.1-.1.3-.1.4 0l.1.1v5.4h.5c.2 0 .3.1.3.3 0 .1-.1.3-.3.3h-.5v1.3c0 .1-.1.3-.3.3-.1 0-.3-.1-.3-.3v-1.2Zm0-.5v-4.6l-3.7 4.6h3.7ZM309.9 56c-.1-.1-.1-.3 0-.4.1-.1.3-.1.4 0 .4.4.9.6 1.5.6.5 0 1.1-.2 1.5-.6.4-.4.6-.9.6-1.5 0-.5-.2-1.1-.6-1.5-.4-.4-.9-.6-1.5-.6-.5 0-1.1.2-1.5.6-.1.1-.3.1-.4 0l-.1-.1v-.2l.4-3.2c0-.1 0-.2.1-.2 0 0 .1-.1.2-.1h3.7c.2 0 .3.1.3.3 0 .2-.1.3-.3.3h-3.4l-.3 2.3c.4-.2.9-.4 1.3-.4.7 0 1.4.2 1.9.8.5.5.8 1.2.8 1.9s-.2 1.4-.8 1.9c-.5.5-1.2.8-1.9.8-.7.1-1.4-.1-1.9-.7ZM317.3 50.7c.5-1 1.4-1.7 2.7-1.7.1 0 .3.1.3.3 0 .2-.1.3-.3.3-1.1 0-1.8.6-2.3 1.4-.3.5-.4 1-.6 1.6.5-.5 1.2-.9 1.9-.9 1.4 0 2.6 1.2 2.6 2.6 0 1.4-1.1 2.6-2.6 2.6-1.4 0-2.5-1.1-2.6-2.5v-.5c.2-1.2.4-2.3.9-3.2Zm-.1 3.6v.2c.1 1 1 1.8 2 1.8 1.1 0 2.1-.9 2.1-2s-.9-2-2.1-2c-1.1-.1-2 .8-2 2ZM324.7 56.4l2.9-6.9h-3.8c-.1 0-.3-.1-.3-.3 0-.1.1-.3.3-.3h4.3c.1 0 .1.1.1.2v.2l-3 7.2c0 .1-.1.2-.2.2h-.1c-.2 0-.3-.2-.2-.3ZM332.4 48.9c.9 0 1.6.7 1.6 1.6 0 .5-.3 1-.7 1.3.9.4 1.6 1.3 1.6 2.3 0 1.4-1.1 2.5-2.5 2.5s-2.5-1.1-2.5-2.5c0-1.1.6-2 1.6-2.4-.4-.3-.7-.8-.7-1.3 0-.7.7-1.5 1.6-1.5Zm0 7.3c1.1 0 2-.9 2-2s-.9-2-2-2-2 .9-2 2 .9 2 2 2Zm0-4.5c.6 0 1.1-.5 1.1-1.1 0-.6-.5-1.1-1.1-1.1-.6 0-1.1.5-1.1 1.1 0 .6.5 1 1.1 1.1ZM346.3 48.9c1.3 0 2.4 1 2.6 2.3V52c0 1-.2 2.2-.7 3.1-.5.9-1.5 1.7-2.7 1.7-.2 0-.3-.1-.3-.3 0-.2.1-.3.3-.3 1.1 0 1.8-.6 2.3-1.4.3-.5.5-1 .6-1.6-.5.5-1.2.9-1.9.9-1.4 0-2.6-1.1-2.6-2.6-.2-1.5 1-2.6 2.4-2.6Zm2.1 2.6c0-1.1-.9-2-2.1-2-1.1 0-2 .9-2 2s.9 2 2 2c1.2 0 2.1-.9 2.1-2ZM350.9 52.8c0-1.1.3-2 .7-2.7.5-.7 1.2-1.2 2-1.2s1.5.5 2 1.2.8 1.7.8 2.7c0 1.1-.3 2-.8 2.7-.5.7-1.2 1.2-2 1.2s-1.5-.5-2-1.2c-.4-.7-.7-1.7-.7-2.7Zm.6 0c0 1 .3 1.8.7 2.4.4.6.9.9 1.5.9s1.1-.3 1.5-.9c.4-.6.7-1.5.7-2.4 0-1-.3-1.8-.7-2.4-.4-.6-.9-.9-1.5-.9s-1.1.3-1.5.9c-.5.6-.7 1.4-.7 2.4ZM360 49.6l-1.1.7h-.1c-.1 0-.2-.1-.2-.1-.1-.1 0-.3.1-.4l1.5-.9c.1-.1.3 0 .4.1v7.4c0 .1-.1.3-.3.3-.1 0-.3-.1-.3-.3v-6.8ZM362.4 56.2l3.7-3.3c.4-.4.7-.9.7-1.5 0-.5-.2-1-.5-1.3-.4-.4-.9-.7-1.5-.7-.5 0-1 .2-1.4.5l-.4.3c-.1.1-.3.1-.4 0-.1-.1-.1-.3 0-.4l.4-.4c.5-.4 1.1-.7 1.7-.7.7 0 1.4.3 1.9.8s.7 1.1.7 1.7c0 .7-.3 1.4-.8 1.9l-3.1 2.8h3.7c.1 0 .3.1.3.3 0 .1-.1.3-.3.3h-4.4c-.1 0-.2 0-.2-.1-.2.1-.2-.1-.1-.2ZM380.5 49.3l-2 2.1c.5.1 1 .3 1.3.7.5.5.8 1.2.8 1.9a2.732 2.732 0 0 1-2.7 2.7c-.7 0-1.4-.3-1.9-.8-.1-.1-.1-.3 0-.4.1-.1.3-.1.4 0 .4.4.9.6 1.5.6.5 0 1.1-.2 1.5-.6.4-.4.6-1 .6-1.5s-.2-1.1-.6-1.5c-.4-.4-.9-.6-1.5-.6-.1 0-.2 0-.2-.1-.1-.1-.1-.3 0-.4l1.9-2h-3c-.2 0-.3-.1-.3-.3 0-.2.1-.3.3-.3h3.7c.2 0 .3.1.3.3 0 0 0 .1-.1.2 0-.1 0 0 0 0ZM387.1 55h-4.2c-.1 0-.1 0-.2-.1s-.1-.3 0-.4l4.5-5.7c.1-.1.3-.1.4 0l.1.1v5.4h.5c.2 0 .3.1.3.3 0 .1-.1.3-.3.3h-.5v1.3c0 .1-.1.3-.3.3-.1 0-.3-.1-.3-.3V55Zm0-.5v-4.6l-3.7 4.6h3.7ZM390.2 55.8c-.1-.1-.1-.3 0-.4.1-.1.3-.1.4 0 .4.4.9.6 1.5.6.5 0 1.1-.2 1.5-.6.4-.4.6-.9.6-1.5 0-.5-.2-1.1-.6-1.5-.4-.4-.9-.6-1.5-.6-.5 0-1.1.2-1.5.6-.1.1-.3.1-.4 0l-.1-.1v-.2l.4-3.2c0-.1 0-.2.1-.2 0 0 .1-.1.2-.1h3.7c.2 0 .3.1.3.3 0 .2-.1.3-.3.3h-3.4l-.3 2.3c.4-.2.9-.4 1.3-.4.7 0 1.4.2 1.9.8.5.5.8 1.2.8 1.9s-.2 1.4-.8 1.9c-.5.5-1.2.8-1.9.8-.7.1-1.4-.1-1.9-.7ZM397.6 50.5c.5-1 1.4-1.7 2.7-1.7.1 0 .3.1.3.3 0 .2-.1.3-.3.3-1.1 0-1.8.6-2.3 1.4-.3.5-.4 1-.6 1.6.5-.5 1.2-.9 1.9-.9 1.4 0 2.6 1.2 2.6 2.6 0 1.4-1.1 2.6-2.6 2.6-1.4 0-2.5-1.1-2.6-2.5v-.5c.2-1.2.4-2.3.9-3.2Zm-.1 3.6v.2c.1 1 1 1.8 2 1.8 1.1 0 2.1-.9 2.1-2s-.9-2-2.1-2c-1.1-.1-2 .8-2 2Z"/><path fill="#A6A6A6" d="m349.097 70.212-68.4.177.009 3.4 68.4-.177-.009-3.4ZM329.097 77.638l-48.4.125.008 3.4 48.4-.125-.008-3.4ZM373.697 13.856l-34.1.088.009 3.4 34.1-.088-.009-3.4Z"/><path fill="#24CCA7" d="M415.2 171.1h-33.9c-11.046 0-20 8.954-20 20V225c0 11.046 8.954 20 20 20h33.9c11.046 0 20-8.954 20-20v-33.9c0-11.046-8.954-20-20-20Z"/><path fill="#fff" d="M399.5 183c1.4 0 2.5 1.1 2.5 2.5v1.3c3.4.4 6.4 1.5 9.1 3.2.9.5 1.8 1.4 1.8 2.8 0 1.8-1.5 3.2-3.3 3.2-.6 0-1.2-.2-1.8-.5-2-1.2-4-2.1-6-2.6v11.2c8.9 2.2 12.7 5.8 12.7 12 0 6.4-5 10.7-12.4 11.4v3.5c0 1.4-1.1 2.5-2.5 2.5s-2.6-1.1-2.6-2.5v-3.6c-4.4-.5-8.4-2-12-4.6-1-.6-1.6-1.6-1.6-2.8 0-1.8 1.4-3.2 3.2-3.2.7 0 1.4.2 1.9.6 2.7 2 5.4 3.3 8.6 3.9v-11.5c-8.5-2.2-12.5-5.4-12.5-12 0-6.3 5-10.6 12.3-11.2v-1.2c0-1.3 1.2-2.4 2.6-2.4Zm-2.4 19.9v-10.3c-3.7.4-5.6 2.3-5.6 4.9 0 2.4 1.2 3.9 5.6 5.4Zm4.7 8.1v10.6c3.7-.4 5.8-2.3 5.8-5.1-.1-2.5-1.3-4.1-5.8-5.5Z"/><path fill="#24CCA7" d="M73.3 108.5H39.4c-11.046 0-20 8.954-20 20v33.9c0 11.046 8.954 20 20 20h33.9c11.046 0 20-8.954 20-20v-33.9c0-11.046-8.954-20-20-20Z"/><path fill="#fff" d="M72.7 160.1H38.2l-8.5-30.6h48.5l1.8-7.1h5.5v2h-3.9l-8.9 35.7Zm-32.9-2h31.4l6.6-26.6H32.5l7.3 26.6Z"/><path fill="#fff" d="m43.1 166.2-1.9-.8 3.1-7.3h23.5l2.5 7.4-1.9.6-2.1-6H45.7l-2.6 6.1ZM77.3 136.5h-44v2h44v-2ZM74.896 143.914l-39.8.175.009 2 39.8-.175-.009-2ZM73.3 151.7H37.2v2h36.1v-2Z"/><path fill="#fff" d="M56.7 130.7h-2v28.5h2v-28.5ZM48.953 130.565l-1.993.16 2.286 28.509 1.993-.16-2.285-28.509ZM40.362 130.451l-1.967.362 5.246 28.521 1.967-.361-5.246-28.522ZM62.366 130.589l-2.292 28.509 1.994.16 2.291-28.508-1.993-.161ZM70.981 130.413l-5.24 28.521 1.967.362 5.24-28.522-1.967-.361ZM42.2 170.1c-2.4 0-4.3-1.9-4.3-4.3s1.9-4.3 4.3-4.3 4.3 1.9 4.3 4.3-2 4.3-4.3 4.3Zm0-6.6c-1.3 0-2.3 1-2.3 2.3 0 1.3 1 2.3 2.3 2.3 1.3 0 2.3-1 2.3-2.3 0-1.3-1.1-2.3-2.3-2.3ZM69.3 170.1c-2.4 0-4.3-1.9-4.3-4.3s1.9-4.3 4.3-4.3 4.3 1.9 4.3 4.3-1.9 4.3-4.3 4.3Zm0-6.6c-1.3 0-2.3 1-2.3 2.3 0 1.3 1 2.3 2.3 2.3 1.3 0 2.3-1 2.3-2.3 0-1.3-1.1-2.3-2.3-2.3Z"/><path fill="#4A56E2" d="M242.5 419.5c101.289 0 183.4-10.879 183.4-24.3 0-13.42-82.111-24.3-183.4-24.3S59.1 381.78 59.1 395.2c0 13.421 82.111 24.3 183.4 24.3Z"/><path fill="#4A56E2" d="M54.4 392.7c29.382 0 53.2-4.567 53.2-10.2 0-5.633-23.818-10.2-53.2-10.2-29.381 0-53.2 4.567-53.2 10.2 0 5.633 23.819 10.2 53.2 10.2Z"/><path fill="#263238" d="M260 21.3H99.6c-9 0-16.2 7.4-16.2 16.5V368c0 9.1 7.3 16.5 16.2 16.5H260c9 0 16.2-7.4 16.2-16.5V37.8c0-9.1-7.2-16.5-16.2-16.5Zm6.1 336.5c0 8.7-6.5 15.7-14.5 15.7H108.1c-8 0-14.6-7-14.6-15.7V50.4c0-17.7 6.5-18.6 14.6-18.6h28.7c1.7 0 3 1.9 3 4.3v1c0 5.5 3 5.5 6.7 5.5H213c3.7 0 6.7 0 6.7-5.5v-1c0-2.4 1.3-4.3 3-4.3h28.7c8 0 14.5 2.3 14.5 18.6v307.4h.2Z"/><path fill="#fff" d="M266.1 53.4v304.4c0 8.7-6.5 15.7-14.5 15.7H108.1c-8 0-14.6-7-14.6-15.7V53.4c0-17.7 6.5-21.6 14.6-21.6h28.7c1.7 0 3 1.9 3 4.3v1c0 5.5 3 5.5 6.7 5.5H213c3.7 0 6.7 0 6.7-5.5v-1c0-2.4 1.3-4.3 3-4.3h28.7c8.2 0 14.7 5.4 14.7 21.6Z"/><path fill="#fff" d="M188.9 35.7h-18.1c-.6 0-1.1-.5-1.1-1.1 0-.6.5-1.1 1.1-1.1h18.1c.6 0 1.1.5 1.1 1.1 0 .6-.5 1.1-1.1 1.1Z"/><path fill="#C7C7C7" d="M189 202.6h-20.9v2.7H189v-2.7Z"/><path fill="#FFD8D0" d="M140.4 74h-28a8 8 0 0 0-8 8v28a8 8 0 0 0 8 8h28a8 8 0 0 0 8-8V82a8 8 0 0 0-8-8Z"/><path fill="#263238" d="m131.1 101.7-5.8-1.9s-3 2.3-5-1.6c0 0-4.5 1.3-6-3.4 0 0-5.5-1.7-3.9-4.9 1.6-3.1 6 .2 6 .2s4.4-.4 5.9 4.1c0 0 4.2 0 4.2 3.9l4.6 3.6Z"/><path fill="#fff" d="M113 91.1c1.6.8 3.1 1.6 4.6 2.5 1.5.8 3.1 1.7 4.6 2.6l4.5 2.7c1.5.9 3 1.8 4.4 2.9l-1.1-.8-1.1-.7-2.3-1.3-4.5-2.6-4.5-2.6c-1.6-.9-3.1-1.8-4.6-2.7Z"/><path fill="#263238" d="m131.4 101.5.1-6.1s3.1-2.1.1-5.2c0 0 2.7-3.8-1.3-6.7 0 0 .2-5.8-3.3-5.3s-1.8 5.7-1.8 5.7-1.8 4 2 7c0 0-1.4 4 2.3 5.2l1.9 5.4Z"/><path fill="#fff" d="M127.3 80.9c.4 1.7.7 3.4 1 5.1l1 5.2 1 5.2.5 2.6.3 1.3.3 1.3c-.5-1.7-.9-3.4-1.3-5.1-.4-1.7-.7-3.4-1.1-5.1-.3-1.7-.7-3.4-1-5.2-.2-1.8-.4-3.6-.7-5.3Z"/><path fill="#455A64" d="m131.8 102.4-5.7-5.9s-4.8 1.2-5.2-4.5c0 0-6.2-.8-5.4-7.3 0 0-5.8-5-2.2-8 3.6-2.9 7.2 3.4 7.2 3.4s5.5 1.9 5 8.1c0 0 5.1 2.2 3.1 6.9l3.2 7.3Z"/><path fill="#fff" d="M117 79.9c1.4 1.7 2.8 3.5 4.1 5.4.3.5.7.9 1 1.4l1 1.4c.3.5.6.9.9 1.4.3.5.6.9.9 1.4.6.9 1.2 1.9 1.8 2.8l.9 1.4.4.7.4.7c1.2 1.9 2.2 3.9 3.3 5.9l-.4-.7-.4-.7-.4-.7-.4-.7-.9-1.4-.9-1.4-3.6-5.7c-.6-.9-1.2-1.9-1.9-2.8l-.9-1.4-1-1.4c-.6-.9-1.3-1.8-1.9-2.8-.7-1-1.4-1.9-2-2.8Z"/><path fill="#fff" d="M140.9 102.3c.1.1.2.3.3.4 2.8 4.4-.9 7.8-1 9.4-.1 1.6 1.1 2.6.4 3.2-.7.5-1.3-1-2.9-1.4-1.2-.3-4.4 1.1-7.2-.4-.2-.1-.5-.3-.7-.4-.5-.3-.9-.7-1.3-1.3-.1-.1-.2-.3-.3-.4l-.2-.2c-1.2-1.8-1.7-3.5-1.6-5 0-.3.1-.7.1-1 .4-2 1.6-3.6 3.3-4.8 2.7-1.9 6.3-2.4 9.2.1.2.2.4.3.6.5.4.4.7.8 1.1 1.2.1 0 .2 0 .2.1Z"/><path fill="#DBDBDB" d="m133.8 110.2.4.6-3.7 2.7c-.2-.1-.5-.3-.7-.4l4-2.9ZM130.7 109.3l.4.6-2.6 1.8c-.1-.1-.2-.3-.3-.4l-.2-.2 2.7-1.8ZM140.9 102.3c.1.1.2.3.3.4l-2.6 1.8-.4-.6 2.6-1.8c0 .1.1.1.1.2ZM139.7 100.9l-1.8 1.3-.4-.6 1.7-1.2.5.5ZM128.6 103.6l.4.6-2.6 1.8c0-.3.1-.7.1-1l2.1-1.4Z"/><path fill="#A6A6A6" d="M118.3 121.6c.1 0 .2.1.2.2v.3c.6 0 1 .2 1.4.6.1.1.1.1.1.2s-.1.2-.2.2c0 0-.1 0-.1-.1-.4-.3-.8-.5-1.2-.5v2.2c1.2.3 1.7.7 1.7 1.5s-.7 1.4-1.7 1.5v.6c0 .1-.1.2-.2.2s-.2-.1-.2-.2v-.6c-.7-.1-1.3-.3-1.8-.8-.1 0-.1-.1-.1-.2s.1-.2.2-.2.1 0 .1.1c.4.4.9.7 1.6.7V125c-1.2-.3-1.7-.7-1.7-1.5s.7-1.4 1.7-1.4v-.3c.1-.2.1-.2.2-.2Zm-.1 3v-2.2c-.8 0-1.3.5-1.3 1.1 0 .5.2.8 1.3 1.1Zm.3.5v2.2c.8 0 1.3-.5 1.3-1.1 0-.6-.2-.9-1.3-1.1ZM121.3 127.3l2.6-2.4c.3-.3.5-.7.5-1.1 0-.3-.1-.7-.4-1-.3-.3-.7-.5-1.1-.5-.4 0-.7.1-1 .4l-.3.2c-.1.1-.2.1-.3 0-.1-.1-.1-.2 0-.3l.3-.3c.4-.3.8-.5 1.2-.5.5 0 1 .2 1.3.6.3.4.5.8.5 1.2 0 .5-.2 1-.6 1.4l-2.2 2h2.6c.1 0 .2.1.2.2s-.1.2-.2.2h-3.1c-.1 0-.1 0-.1-.1 0 .2 0 .1.1 0ZM126.6 126.8c.2 0 .4.2.4.4s-.2.4-.4.4-.4-.2-.4-.4.2-.4.4-.4ZM128 127.1c-.1-.1-.1-.2 0-.3.1-.1.2-.1.3 0 .3.3.7.4 1.1.4.4 0 .8-.1 1.1-.4.3-.3.4-.7.4-1.1 0-.4-.1-.8-.4-1.1-.3-.3-.7-.4-1.1-.4-.4 0-.8.1-1.1.4-.1.1-.2.1-.3 0v-.2l.3-2.3c0-.1 0-.1.1-.1h2.7c.1 0 .2.1.2.2s-.1.2-.2.2h-2.4l-.2 1.7c.3-.2.6-.3 1-.3.5 0 1 .2 1.3.6.4.4.6.8.6 1.3s-.2 1-.6 1.3c-.4.4-.9.6-1.3.6-.7 0-1.2-.1-1.5-.5ZM132.8 124.8c0-.8.2-1.4.5-2 .3-.5.8-.8 1.4-.8.6 0 1.1.3 1.4.8.3.5.5 1.2.5 2s-.2 1.4-.5 2c-.3.5-.8.8-1.4.8-.6 0-1.1-.3-1.4-.8-.4-.5-.5-1.2-.5-2Zm.3 0c0 .7.2 1.3.5 1.7.3.4.7.7 1.1.7.4 0 .8-.2 1.1-.7.3-.4.5-1 .5-1.7s-.2-1.3-.5-1.7c-.3-.4-.7-.7-1.1-.7-.4 0-.8.2-1.1.7-.3.4-.5 1.1-.5 1.7Z"/><path fill="#FFD8D0" d="M192.4 74h-28a8 8 0 0 0-8 8v28a8 8 0 0 0 8 8h28a8 8 0 0 0 8-8V82a8 8 0 0 0-8-8Z"/><path fill="#fff" d="M186.1 101.9c5.6 5.7 11.2 11.6 11.2 11.6-.3 1.5-2 1.9-2 1.9s-5.8-5.9-11.3-11.4l-.6-.6-.4-.4-1.2-1.2-.4-.4c-.8-.8-1.6-1.6-2.3-2.4l-.4-.4c-2.3-2.3-4-4-4.5-4.6-2.5-2.6-14.8-7.9-14.8-7.9s-1-.7.3-2.4c0 0 4.8 2.3 9.2 4.5l-10.4-6.6s-.1-1 .9-1.8l5.9 3.9-5.3-5.1s.1-.8 1.6-1.5l9.2 9.5-6.5-8.6s.7-.9 1.6-1.2c0 0 4 6.1 9.7 13.6l-5.9-10.1s.5-.7 1.6-.8c0 0 4.7 11.1 9.6 16.8.1.1.2.3.4.4.2.2.4.4.5.6l1.8 1.8.4.4 1.2 1.2.4.4c.1.4.3.6.5.8Z"/><path fill="#455A64" d="M171.2 79.8s4.7 11.1 9.6 16.8l-2.1 2c-2.3-2.3-4-4-4.5-4.6-2.5-2.6-14.8-7.9-14.8-7.9s-1-.7.3-2.4c0 0 4.8 2.3 9.2 4.5l-10.4-6.6s-.1-1 .9-1.8l5.9 3.9-5.3-5.1s.1-.8 1.6-1.5l9.2 9.5-6.5-8.6s.7-.9 1.6-1.2c0 0 4 6.1 9.7 13.6l-5.9-10.1c-.1.3.3-.4 1.5-.5ZM183.5 99.4l-2.1 2c-.8-.8-1.6-1.6-2.3-2.4l2.1-2c.2.2.4.4.5.6l1.8 1.8ZM185.1 100.9l-2.1 2-1.2-1.2 2.1-2c.4.5.8.8 1.2 1.2ZM186.1 101.9l-2.1 2-.6-.6 2.1-2 .6.6Z"/><path fill="#A6A6A6" d="M170.8 121.6c.1 0 .2.1.2.2v.3c.6 0 1 .2 1.4.6.1.1.1.1.1.2s-.1.2-.2.2c0 0-.1 0-.1-.1-.4-.3-.8-.5-1.2-.5v2.2c1.2.3 1.7.7 1.7 1.5s-.7 1.4-1.7 1.5v.6c0 .1-.1.2-.2.2s-.2-.1-.2-.2v-.6c-.7-.1-1.3-.3-1.8-.8-.1 0-.1-.1-.1-.2s.1-.2.2-.2.1 0 .1.1c.4.4.9.7 1.6.7V125c-1.2-.3-1.7-.7-1.7-1.5s.7-1.4 1.7-1.4v-.3c0-.2 0-.2.2-.2Zm-.2 3v-2.2c-.8 0-1.3.5-1.3 1.1 0 .5.2.8 1.3 1.1Zm.3.5v2.2c.8 0 1.3-.5 1.3-1.1 0-.6-.2-.9-1.3-1.1ZM174.6 122.6l-.8.5h-.1c-.1 0-.1 0-.2-.1s0-.2.1-.3l1.1-.7c.1 0 .2 0 .3.1V127.3c0 .1-.1.2-.2.2s-.2-.1-.2-.2v-4.7ZM177 126.8c.2 0 .4.2.4.4s-.2.4-.4.4-.4-.2-.4-.4.2-.4.4-.4ZM178.1 124.8c0-.8.2-1.4.5-2 .3-.5.8-.8 1.4-.8.6 0 1.1.3 1.4.8.3.5.5 1.2.5 2s-.2 1.4-.5 2c-.3.5-.8.8-1.4.8-.6 0-1.1-.3-1.4-.8-.3-.5-.5-1.2-.5-2Zm.4 0c0 .7.2 1.3.5 1.7.3.4.7.7 1.1.7.4 0 .8-.2 1.1-.7.3-.4.5-1 .5-1.7s-.2-1.3-.5-1.7c-.3-.4-.7-.7-1.1-.7-.4 0-.8.2-1.1.7-.3.4-.5 1.1-.5 1.7ZM183.8 124.8c0-.8.2-1.4.5-2 .3-.5.8-.8 1.4-.8.6 0 1.1.3 1.4.8.3.5.5 1.2.5 2s-.2 1.4-.5 2c-.3.5-.8.8-1.4.8-.6 0-1.1-.3-1.4-.8-.3-.5-.5-1.2-.5-2Zm.4 0c0 .7.2 1.3.5 1.7.3.4.7.7 1.1.7.4 0 .8-.2 1.1-.7.3-.4.5-1 .5-1.7s-.2-1.3-.5-1.7c-.3-.4-.7-.7-1.1-.7-.4 0-.8.2-1.1.7-.3.4-.5 1.1-.5 1.7Z"/><path fill="#FFD8D0" d="M244.3 74h-28a8 8 0 0 0-8 8v28a8 8 0 0 0 8 8h28a8 8 0 0 0 8-8V82a8 8 0 0 0-8-8Z"/><path fill="#fff" d="M217.2 101.3c3.4 11.2 14 9.8 17 8.9 3-.9 12.5-5.6 9.1-16.9-3.4-11.2-14.7-8.6-16.7-8-2.3.7-12.8 4.8-9.4 16Z"/><path fill="#455A64" d="M227.6 86.9s.5 4.2 7.9 1.7c-.1 0-5.1-5.4-7.9-1.7Z"/><path fill="#455A64" d="M228.3 88.6s3.5.2 2.5-6.1c0 0-5 3.3-2.5 6.1Z"/><path fill="#455A64" d="M228 87.5s-1.2 3.3-6.6-.2c0 0 5.1-3.3 6.6.2Z"/><path fill="#455A64" d="M227.8 86.7s-3.2 2.7 3 7.5c0-.1 1.6-7.2-3-7.5Z"/><path fill="#455A64" d="M227.4 87.3s-4.7-1.3-4.1 6.7c.1 0 7.2-2.5 4.1-6.7Z"/><path fill="#263238" d="M228.2 88.3s.6-4.2-2.9-7.1c0 0-2 0-2.5 2.1 0 0 4 2.2 4.3 5.9l.9-.6"/><path fill="#A6A6A6" d="M222.8 121.6c.1 0 .2.1.2.2v.3c.6 0 1 .2 1.4.6.1.1.1.1.1.2s-.1.2-.2.2c0 0-.1 0-.1-.1-.4-.3-.8-.5-1.2-.5v2.2c1.2.3 1.7.7 1.7 1.5s-.7 1.4-1.7 1.5v.6c0 .1-.1.2-.2.2s-.2-.1-.2-.2v-.6c-.7-.1-1.3-.3-1.8-.8-.1 0-.1-.1-.1-.2s.1-.2.2-.2.1 0 .1.1c.4.4.9.7 1.6.7V125c-1.2-.3-1.7-.7-1.7-1.5s.7-1.4 1.7-1.4v-.3c0-.2.1-.2.2-.2Zm-.2 3v-2.2c-.8 0-1.3.5-1.3 1.1.1.5.3.8 1.3 1.1Zm.4.5v2.2c.8 0 1.3-.5 1.3-1.1 0-.6-.3-.9-1.3-1.1ZM226.7 122.6l-.8.5h-.1c-.1 0-.1 0-.2-.1s0-.2.1-.3l1.1-.7c.1 0 .2 0 .3.1V127.3c0 .1-.1.2-.2.2s-.2-.1-.2-.2v-4.7ZM229 126.8c.2 0 .4.2.4.4s-.2.4-.4.4-.4-.2-.4-.4.2-.4.4-.4ZM230.4 127.1c-.1-.1-.1-.2 0-.3.1-.1.2-.1.3 0 .3.3.7.4 1.1.4.4 0 .8-.1 1.1-.4.3-.3.4-.7.4-1.1 0-.4-.1-.8-.4-1.1-.3-.3-.7-.4-1.1-.4-.4 0-.8.1-1.1.4-.1.1-.2.1-.3 0v-.2l.3-2.3c0-.1 0-.1.1-.1h2.7c.1 0 .2.1.2.2s-.1.2-.2.2H231l-.2 1.7c.3-.2.6-.3 1-.3.5 0 1 .2 1.3.6.4.4.6.8.6 1.3s-.2 1-.6 1.3c-.4.4-.9.6-1.3.6-.6 0-1-.1-1.4-.5ZM235.2 124.8c0-.8.2-1.4.5-2 .3-.5.8-.8 1.4-.8.6 0 1.1.3 1.4.8.3.5.5 1.2.5 2s-.2 1.4-.5 2c-.3.5-.8.8-1.4.8-.6 0-1.1-.3-1.4-.8-.3-.5-.5-1.2-.5-2Zm.4 0c0 .7.2 1.3.5 1.7.3.4.7.7 1.1.7.4 0 .8-.2 1.1-.7.3-.4.5-1 .5-1.7s-.2-1.3-.5-1.7c-.3-.4-.7-.7-1.1-.7-.4 0-.8.2-1.1.7-.3.4-.5 1.1-.5 1.7Z"/><path fill="#FFD8D0" d="M140.4 138.2h-28a8 8 0 0 0-8 8v28a8 8 0 0 0 8 8h28a8 8 0 0 0 8-8v-28a8 8 0 0 0-8-8Z"/><path fill="#fff" d="M138.6 156.4v21.7c0 1.3-2.7 2.1-11.8 2.1-9.1 0-11.7-.8-11.7-2.1v-21.7c0-5.8 6.4-9.5 6.4-10.7v-4.4h10.7v4.4c0 1.2 6.4 4.9 6.4 10.7Z"/><path fill="#37474F" d="M132.9 139.4h-12v3.7h12v-3.7ZM138.6 162.2h-23.5v11.7h23.5v-11.7Z"/><path fill="#A6A6A6" d="M117.9 186.1c.1 0 .2.1.2.2v.3c.6 0 1 .2 1.4.6.1.1.1.1.1.2s-.1.2-.2.2c0 0-.1 0-.1-.1-.4-.3-.8-.5-1.2-.5v2.2c1.2.3 1.7.7 1.7 1.5s-.7 1.4-1.7 1.5v.6c0 .1-.1.2-.2.2s-.2-.1-.2-.2v-.6c-.7-.1-1.3-.3-1.8-.8-.1 0-.1-.1-.1-.2s.1-.2.2-.2.1 0 .1.1c.4.4.9.7 1.6.7v-2.3c-1.2-.3-1.7-.7-1.7-1.5s.7-1.4 1.7-1.4v-.3c0-.1.1-.2.2-.2Zm-.1 3v-2.2c-.8 0-1.3.5-1.3 1.1 0 .5.2.9 1.3 1.1Zm.3.5v2.2c.8 0 1.3-.5 1.3-1.1 0-.5-.3-.9-1.3-1.1ZM124.2 186.9l-1.4 1.5c.4.1.7.2 1 .5.4.4.6.9.6 1.3 0 .5-.2 1-.6 1.3-.4.4-.9.6-1.3.6-.5 0-1-.2-1.3-.6-.1-.1-.1-.2 0-.3.1-.1.2-.1.3 0 .3.3.7.4 1.1.4.4 0 .8-.1 1.1-.4.3-.3.4-.7.4-1.1 0-.4-.1-.8-.4-1.1-.3-.3-.7-.4-1.1-.4-.1 0-.1 0-.2-.1s-.1-.2 0-.3l1.4-1.4h-2.1c-.1 0-.2-.1-.2-.2s.1-.2.2-.2h2.6c.1 0 .2.1.2.2l-.3.3c.1 0 .1 0 0 0ZM126.4 191.4c.2 0 .4.2.4.4s-.2.4-.4.4-.4-.2-.4-.4c0-.3.1-.4.4-.4ZM127.5 189.4c0-.8.2-1.4.5-2 .3-.5.8-.8 1.4-.8.6 0 1.1.3 1.4.8.3.5.5 1.2.5 2s-.2 1.4-.5 2c-.3.5-.8.8-1.4.8-.6 0-1.1-.3-1.4-.8-.3-.6-.5-1.3-.5-2Zm.4 0c0 .7.2 1.3.5 1.7.3.4.7.7 1.1.7.4 0 .8-.2 1.1-.7.3-.4.5-1 .5-1.7s-.2-1.3-.5-1.7c-.3-.4-.7-.7-1.1-.7-.4 0-.8.2-1.1.7-.3.4-.5 1-.5 1.7ZM133.2 189.4c0-.8.2-1.4.5-2 .3-.5.8-.8 1.4-.8.6 0 1.1.3 1.4.8.3.5.5 1.2.5 2s-.2 1.4-.5 2c-.3.5-.8.8-1.4.8-.6 0-1.1-.3-1.4-.8-.3-.6-.5-1.3-.5-2Zm.4 0c0 .7.2 1.3.5 1.7.3.4.7.7 1.1.7.4 0 .8-.2 1.1-.7.3-.4.5-1 .5-1.7s-.2-1.3-.5-1.7c-.3-.4-.7-.7-1.1-.7-.4 0-.8.2-1.1.7-.3.4-.5 1-.5 1.7Z"/><path fill="#FFD8D0" d="M192.4 138.2h-28a8 8 0 0 0-8 8v28a8 8 0 0 0 8 8h28a8 8 0 0 0 8-8v-28a8 8 0 0 0-8-8Z"/><path fill="#fff" d="M187.7 147.7h-18.3v32.5h18.3v-32.5Z"/><path fill="#fff" d="M187.7 147.7h-18.3v32.5h18.3v-32.5Z"/><path fill="#455A64" d="M187.7 159.7h-18.3v13.7h18.3v-13.7Z"/><path fill="#fff" d="M187.7 147.7h-18.3l2.3-4.5h13.8l2.2 4.5Z"/><path fill="#DBDBDB" d="M187.7 147.7h-18.3l2.3-4.5h13.8l2.2 4.5Z"/><path fill="#fff" d="M185.4 139.4h-13.8v3.8h13.8v-3.8Z"/><path fill="#A6A6A6" d="M170.1 186.1c.1 0 .2.1.2.2v.3c.6 0 1 .2 1.4.6.1.1.1.1.1.2s-.1.2-.2.2c0 0-.1 0-.1-.1-.4-.3-.8-.5-1.2-.5v2.2c1.2.3 1.7.7 1.7 1.5s-.7 1.4-1.7 1.5v.6c0 .1-.1.2-.2.2s-.2-.1-.2-.2v-.6c-.7-.1-1.3-.3-1.8-.8-.1 0-.1-.1-.1-.2s.1-.2.2-.2.1 0 .1.1c.4.4.9.7 1.6.7v-2.3c-1.2-.3-1.7-.7-1.7-1.5s.7-1.4 1.7-1.4v-.3c0-.1.1-.2.2-.2Zm-.2 3v-2.2c-.8 0-1.3.5-1.3 1.1 0 .5.3.9 1.3 1.1Zm.3.5v2.2c.8 0 1.3-.5 1.3-1.1.1-.5-.2-.9-1.3-1.1ZM173 191.8l2.6-2.4c.3-.3.5-.7.5-1.1 0-.3-.1-.7-.4-1-.3-.3-.7-.5-1.1-.5-.4 0-.7.1-1 .4l-.3.2c-.1.1-.2.1-.3 0-.1-.1-.1-.2 0-.3l.3-.3c.4-.3.8-.5 1.2-.5.5 0 1 .2 1.3.6.3.4.5.8.5 1.2 0 .5-.2 1-.6 1.4l-2.2 2h2.6c.1 0 .2.1.2.2s-.1.2-.2.2H173c-.1 0-.1 0-.1-.1 0 .2 0 .1.1 0ZM178.3 191.4c.2 0 .4.2.4.4s-.2.4-.4.4-.4-.2-.4-.4c0-.3.2-.4.4-.4ZM179.7 191.6c-.1-.1-.1-.2 0-.3.1-.1.2-.1.3 0 .3.3.7.4 1.1.4.4 0 .8-.1 1.1-.4.3-.3.4-.7.4-1.1 0-.4-.1-.8-.4-1.1-.3-.3-.7-.4-1.1-.4-.4 0-.8.1-1.1.4-.1.1-.2.1-.3 0v-.2l.3-2.3c0-.1 0-.1.1-.1h2.7c.1 0 .2.1.2.2s-.1.2-.2.2h-2.4l-.2 1.7c.3-.2.6-.3 1-.3.5 0 1 .2 1.3.6.4.4.6.8.6 1.3s-.2 1-.6 1.3c-.4.4-.9.6-1.3.6-.7.1-1.2-.1-1.5-.5ZM184.5 189.4c0-.8.2-1.4.5-2 .3-.5.8-.8 1.4-.8.6 0 1.1.3 1.4.8.3.5.5 1.2.5 2s-.2 1.4-.5 2c-.3.5-.8.8-1.4.8-.6 0-1.1-.3-1.4-.8-.3-.6-.5-1.3-.5-2Zm.4 0c0 .7.2 1.3.5 1.7.3.4.7.7 1.1.7.4 0 .8-.2 1.1-.7.3-.4.5-1 .5-1.7s-.2-1.3-.5-1.7c-.3-.4-.7-.7-1.1-.7-.4 0-.8.2-1.1.7-.3.4-.5 1-.5 1.7Z"/><path fill="#FFD8D0" d="M244.3 138.2h-28a8 8 0 0 0-8 8v28a8 8 0 0 0 8 8h28a8 8 0 0 0 8-8v-28a8 8 0 0 0-8-8Z"/><path fill="#fff" d="M238.8 156.4v21.7c0 1.3-1.9 2.1-8.5 2.1-6.5 0-8.5-.8-8.5-2.1v-21.7c0-5.8 4.6-9.5 4.6-10.7v-4.4h7.7v4.4c.1 1.2 4.7 4.9 4.7 10.7Z"/><path fill="#455A64" d="M234.6 139.4H226v3.7h8.6v-3.7Z"/><path fill="#DBDBDB" d="M236.3 163.8h-12.1v8.4h12.1v-8.4Z"/><path fill="#A6A6A6" d="M221.5 186.1c.1 0 .2.1.2.2v.3c.6 0 1 .2 1.4.6.1.1.1.1.1.2s-.1.2-.2.2c0 0-.1 0-.1-.1-.4-.3-.8-.5-1.2-.5v2.2c1.2.3 1.7.7 1.7 1.5s-.7 1.4-1.7 1.5v.6c0 .1-.1.2-.2.2s-.2-.1-.2-.2v-.6c-.7-.1-1.3-.3-1.8-.8-.1 0-.1-.1-.1-.2s.1-.2.2-.2.1 0 .1.1c.4.4.9.7 1.6.7v-2.3c-1.2-.3-1.7-.7-1.7-1.5s.7-1.4 1.7-1.4v-.3c0-.1.1-.2.2-.2Zm-.2 3v-2.2c-.8 0-1.3.5-1.3 1.1 0 .5.3.9 1.3 1.1Zm.3.5v2.2c.8 0 1.3-.5 1.3-1.1.1-.5-.2-.9-1.3-1.1ZM224.4 191.8l2.6-2.4c.3-.3.5-.7.5-1.1 0-.3-.1-.7-.4-1-.3-.3-.7-.5-1.1-.5-.4 0-.7.1-1 .4l-.3.2c-.1.1-.2.1-.3 0-.1-.1-.1-.2 0-.3l.3-.3c.4-.3.8-.5 1.2-.5.5 0 1 .2 1.3.6.3.4.5.8.5 1.2 0 .5-.2 1-.6 1.4l-2.2 2h2.6c.1 0 .2.1.2.2s-.1.2-.2.2h-3.1c-.1 0-.1 0-.1-.1 0 .2 0 .1.1 0ZM229.7 191.4c.2 0 .4.2.4.4s-.2.4-.4.4-.4-.2-.4-.4c0-.3.2-.4.4-.4ZM230.9 189.4c0-.8.2-1.4.5-2 .3-.5.8-.8 1.4-.8.6 0 1.1.3 1.4.8.3.5.5 1.2.5 2s-.2 1.4-.5 2c-.3.5-.8.8-1.4.8-.6 0-1.1-.3-1.4-.8-.3-.6-.5-1.3-.5-2Zm.4 0c0 .7.2 1.3.5 1.7.3.4.7.7 1.1.7.4 0 .8-.2 1.1-.7.3-.4.5-1 .5-1.7s-.2-1.3-.5-1.7c-.3-.4-.7-.7-1.1-.7-.4 0-.8.2-1.1.7-.4.4-.5 1-.5 1.7ZM236.5 189.4c0-.8.2-1.4.5-2 .3-.5.8-.8 1.4-.8.6 0 1.1.3 1.4.8.3.5.5 1.2.5 2s-.2 1.4-.5 2c-.3.5-.8.8-1.4.8-.6 0-1.1-.3-1.4-.8-.3-.6-.5-1.3-.5-2Zm.4 0c0 .7.2 1.3.5 1.7.3.4.7.7 1.1.7.4 0 .8-.2 1.1-.7.3-.4.5-1 .5-1.7s-.2-1.3-.5-1.7c-.3-.4-.7-.7-1.1-.7-.4 0-.8.2-1.1.7-.3.4-.5 1-.5 1.7Z"/><path fill="#FFD8D0" d="M140.4 220.5h-28a8 8 0 0 0-8 8v28a8 8 0 0 0 8 8h28a8 8 0 0 0 8-8v-28a8 8 0 0 0-8-8Z"/><path fill="#fff" d="M116.2 243.2c0 7.7 3.1 19.8 3.5 19.8h12.9c.4 0 4.8-10.3 4.8-20.7 0-10.8-7.5-12.7-7.5-13.4v-4.3h-7.6v4.2c0 .8-6.1 4.8-6.1 14.4Zm14.5-10.8c3.7 0 6.7 10.1 4 11.1-3.8 1.4-7.4-11.1-4-11.1Z"/><path fill="#EBEBEB" d="M127.1 232.4c.2-2.6-5.5-2-7.9 6.5-1.8 6.4.2 19.7 6.6 19.7 7.6 0 8.1-11.2 7.6-11.7-.4-.5-7.2-2.9-6.3-14.5Z"/><path fill="#455A64" d="M120.8 227h10.7l-.7-4.7h-9.3l-.7 4.7Z"/><path fill="#A6A6A6" d="M117.9 270c.1 0 .2.1.2.2v.3c.6 0 1 .2 1.4.6.1.1.1.1.1.2s-.1.2-.2.2c0 0-.1 0-.1-.1-.4-.3-.8-.5-1.2-.5v2.2c1.2.3 1.7.7 1.7 1.5s-.7 1.4-1.7 1.5v.6c0 .1-.1.2-.2.2s-.2-.1-.2-.2v-.6c-.7-.1-1.3-.3-1.8-.8-.1 0-.1-.1-.1-.2s.1-.2.2-.2.1 0 .1.1c.4.4.9.7 1.6.7v-2.3c-1.2-.3-1.7-.7-1.7-1.5s.7-1.4 1.7-1.4v-.3c.1-.1.1-.2.2-.2Zm-.1 3.1v-2.2c-.8 0-1.3.5-1.3 1.1 0 .5.2.8 1.3 1.1Zm.3.5v2.2c.8 0 1.3-.5 1.3-1.1 0-.6-.2-.9-1.3-1.1ZM121 275.6c-.1-.1-.1-.2 0-.3.1-.1.2-.1.3 0 .3.3.7.4 1.1.4.4 0 .8-.1 1.1-.4.3-.3.4-.7.4-1.1 0-.4-.1-.8-.4-1.1-.3-.3-.7-.4-1.1-.4-.4 0-.8.1-1.1.4-.1.1-.2.1-.3 0v-.2l.3-2.3c0-.1 0-.1.1-.1h2.7c.1 0 .2.1.2.2s-.1.2-.2.2h-2.4l-.2 1.7c.3-.2.6-.3 1-.3.5 0 1 .2 1.3.6.4.4.6.8.6 1.3s-.2 1-.6 1.3c-.4.4-.9.6-1.3.6-.6 0-1.1-.1-1.5-.5ZM126.3 275.3c.2 0 .4.2.4.4s-.2.4-.4.4-.4-.2-.4-.4.2-.4.4-.4ZM127.5 273.3c0-.8.2-1.4.5-2 .3-.5.8-.8 1.4-.8.6 0 1.1.3 1.4.8.3.5.5 1.2.5 2s-.2 1.4-.5 2c-.3.5-.8.8-1.4.8-.6 0-1.1-.3-1.4-.8-.3-.5-.5-1.2-.5-2Zm.4 0c0 .7.2 1.3.5 1.7.3.4.7.7 1.1.7.4 0 .8-.2 1.1-.7.3-.4.5-1 .5-1.7s-.2-1.3-.5-1.7c-.3-.4-.7-.7-1.1-.7-.4 0-.8.2-1.1.7-.3.4-.5 1.1-.5 1.7ZM133.2 273.3c0-.8.2-1.4.5-2 .3-.5.8-.8 1.4-.8.6 0 1.1.3 1.4.8.3.5.5 1.2.5 2s-.2 1.4-.5 2c-.3.5-.8.8-1.4.8-.6 0-1.1-.3-1.4-.8-.4-.5-.5-1.2-.5-2Zm.3 0c0 .7.2 1.3.5 1.7.3.4.7.7 1.1.7.4 0 .8-.2 1.1-.7.3-.4.5-1 .5-1.7s-.2-1.3-.5-1.7c-.3-.4-.7-.7-1.1-.7-.4 0-.8.2-1.1.7-.3.4-.5 1.1-.5 1.7Z"/><path fill="#FFD8D0" d="M192.4 220.5h-28a8 8 0 0 0-8 8v28a8 8 0 0 0 8 8h28a8 8 0 0 0 8-8v-28a8 8 0 0 0-8-8Z"/><path fill="#fff" d="M191.1 256.4h-25.3c-2.5 0-4.6-2-4.6-4.6v-15.3c0-2.5 2-4.6 4.6-4.6h25.3c2.5 0 4.6 2 4.6 4.6v15.3c0 2.5-2.1 4.6-4.6 4.6Z"/><path fill="#455A64" d="M191.8 228.9h-26.6v3.1h26.6v-3.1ZM195.8 237.9h-34.6v12.6h34.6v-12.6Z"/><path fill="#fff" d="M189 244.1c0 2.9-4.7 5.3-10.5 5.3S168 247 168 244.1s4.7-5.3 10.5-5.3 10.5 2.4 10.5 5.3Z"/><path fill="#A6A6A6" d="M169.8 270c.1 0 .2.1.2.2v.3c.6 0 1 .2 1.4.6.1.1.1.1.1.2s-.1.2-.2.2c0 0-.1 0-.1-.1-.4-.3-.8-.5-1.2-.5v2.2c1.2.3 1.7.7 1.7 1.5s-.7 1.4-1.7 1.5v.6c0 .1-.1.2-.2.2s-.2-.1-.2-.2v-.6c-.7-.1-1.3-.3-1.8-.8-.1 0-.1-.1-.1-.2s.1-.2.2-.2.1 0 .1.1c.4.4.9.7 1.6.7v-2.3c-1.2-.3-1.7-.7-1.7-1.5s.7-1.4 1.7-1.4v-.3c0-.1.1-.2.2-.2Zm-.2 3.1v-2.2c-.8 0-1.3.5-1.3 1.1 0 .5.3.8 1.3 1.1Zm.4.5v2.2c.8 0 1.3-.5 1.3-1.1 0-.6-.3-.9-1.3-1.1ZM175.9 275h-3.1c-.1-.1-.1-.2 0-.3l3.2-4c.1-.1.2-.1.3 0 0 0 0 .1.1.1v3.8h.4c.1 0 .2.1.2.2s-.1.2-.2.2h-.4v1c0 .1-.1.2-.2.2s-.2-.1-.2-.2v-1h-.1Zm0-.4v-3.3l-2.6 3.3h2.6ZM178.6 275.3c.2 0 .4.2.4.4s-.2.4-.4.4-.4-.2-.4-.4.2-.4.4-.4ZM180 275.6c-.1-.1-.1-.2 0-.3.1-.1.2-.1.3 0 .3.3.7.4 1.1.4.4 0 .8-.1 1.1-.4.3-.3.4-.7.4-1.1 0-.4-.1-.8-.4-1.1-.3-.3-.7-.4-1.1-.4-.4 0-.8.1-1.1.4-.1.1-.2.1-.3 0v-.2l.3-2.3c0-.1 0-.1.1-.1h2.7c.1 0 .2.1.2.2s-.1.2-.2.2h-2.4l-.2 1.7c.3-.2.6-.3 1-.3.5 0 1 .2 1.3.6.4.4.6.8.6 1.3s-.2 1-.6 1.3c-.4.4-.9.6-1.3.6-.7 0-1.2-.1-1.5-.5ZM184.8 273.3c0-.8.2-1.4.5-2 .3-.5.8-.8 1.4-.8.6 0 1.1.3 1.4.8.3.5.5 1.2.5 2s-.2 1.4-.5 2c-.3.5-.8.8-1.4.8-.6 0-1.1-.3-1.4-.8-.3-.5-.5-1.2-.5-2Zm.4 0c0 .7.2 1.3.5 1.7.3.4.7.7 1.1.7.4 0 .8-.2 1.1-.7.3-.4.5-1 .5-1.7s-.2-1.3-.5-1.7c-.3-.4-.7-.7-1.1-.7-.4 0-.8.2-1.1.7-.3.4-.5 1.1-.5 1.7Z"/><path fill="#FFD8D0" d="M244.3 220.5h-28a8 8 0 0 0-8 8v28a8 8 0 0 0 8 8h28a8 8 0 0 0 8-8v-28a8 8 0 0 0-8-8Z"/><path fill="#fff" d="M240.7 248.3V260h-20.9v-11.7c0-4.1.9-14.8 10.4-14.8 9.6 0 10.5 10.7 10.5 14.8Z"/><path fill="#fff" d="M241.3 261.6h-22.1c-.6 0-1.1-.5-1.1-1.1 0-.6.5-1.1 1.1-1.1h22.1c.6 0 1.1.5 1.1 1.1 0 .6-.5 1.1-1.1 1.1ZM233.6 231.1H227v5h6.6v-5Z"/><path fill="#455A64" d="M234.3 228.7h-8.1v3.3h8.1v-3.3Z"/><path fill="#455A64" d="M231.8 225.5h-3v3.8h3v-3.8Z"/><path fill="#455A64" d="M227.2 224.1c-.8.6-1.1 1.8.1 2.5 1 .6 6.3-.7 6.9-.7.6.1 1.9.7 2.1.7.2 0 .8-.3.7-.6 0-.3-1.8-1.6-3.2-1.9-1.4-.3-5.5-.8-6.6 0Z"/><path fill="#A6A6A6" d="M221.7 270c.1 0 .2.1.2.2v.3c.6 0 1 .2 1.4.6.1.1.1.1.1.2s-.1.2-.2.2c0 0-.1 0-.1-.1-.4-.3-.8-.5-1.2-.5v2.2c1.2.3 1.7.7 1.7 1.5s-.7 1.4-1.7 1.5v.6c0 .1-.1.2-.2.2s-.2-.1-.2-.2v-.6c-.7-.1-1.3-.3-1.8-.8-.1 0-.1-.1-.1-.2s.1-.2.2-.2.1 0 .1.1c.4.4.9.7 1.6.7v-2.3c-1.2-.3-1.7-.7-1.7-1.5s.7-1.4 1.7-1.4v-.3c0-.1.1-.2.2-.2Zm-.2 3.1v-2.2c-.8 0-1.3.5-1.3 1.1.1.5.3.8 1.3 1.1Zm.4.5v2.2c.8 0 1.3-.5 1.3-1.1 0-.6-.3-.9-1.3-1.1ZM228 270.9l-1.4 1.5c.4.1.7.2 1 .5.4.4.6.9.6 1.3 0 .5-.2 1-.6 1.3-.4.4-.9.6-1.3.6-.5 0-1-.2-1.3-.6-.1-.1-.1-.2 0-.3.1-.1.2-.1.3 0 .3.3.7.4 1.1.4.4 0 .8-.1 1.1-.4.3-.3.4-.7.4-1.1 0-.4-.1-.8-.4-1.1-.3-.3-.7-.4-1.1-.4-.1 0-.1 0-.2-.1s-.1-.2 0-.3l1.4-1.4h-2.1c-.1 0-.2-.1-.2-.2s.1-.2.2-.2h2.6c.1 0 .2.1.2.2l-.3.3c.1 0 0 0 0 0ZM230.1 275.3c.2 0 .4.2.4.4s-.2.4-.4.4-.4-.2-.4-.4.2-.4.4-.4ZM231.5 275.6c-.1-.1-.1-.2 0-.3.1-.1.2-.1.3 0 .3.3.7.4 1.1.4.4 0 .8-.1 1.1-.4.3-.3.4-.7.4-1.1 0-.4-.1-.8-.4-1.1-.3-.3-.7-.4-1.1-.4-.4 0-.8.1-1.1.4-.1.1-.2.1-.3 0v-.2l.3-2.3c0-.1 0-.1.1-.1h2.7c.1 0 .2.1.2.2s-.1.2-.2.2h-2.4l-.2 1.7c.3-.2.6-.3 1-.3.5 0 1 .2 1.3.6.4.4.6.8.6 1.3s-.2 1-.6 1.3c-.4.4-.9.6-1.3.6-.7 0-1.1-.1-1.5-.5ZM236.3 273.3c0-.8.2-1.4.5-2 .3-.5.8-.8 1.4-.8.6 0 1.1.3 1.4.8.3.5.5 1.2.5 2s-.2 1.4-.5 2c-.3.5-.8.8-1.4.8-.6 0-1.1-.3-1.4-.8-.3-.5-.5-1.2-.5-2Zm.4 0c0 .7.2 1.3.5 1.7.3.4.7.7 1.1.7.4 0 .8-.2 1.1-.7.3-.4.5-1 .5-1.7s-.2-1.3-.5-1.7c-.3-.4-.7-.7-1.1-.7-.4 0-.8.2-1.1.7-.3.4-.5 1.1-.5 1.7Z"/><path fill="#263238" d="M216.5 315.9h-75.9c-5.523 0-10 4.477-10 10v5.9c0 5.523 4.477 10 10 10h75.9c5.523 0 10-4.477 10-10v-5.9c0-5.523-4.477-10-10-10Z"/><path fill="#fff" d="M145.4 330.6h-2.8l-.6 1.5c-.1.3-.3.4-.6.4h-.2c-.3-.1-.5-.5-.4-.8l2.5-6.7c.1-.3.4-.4.6-.4.3 0 .5.1.6.4l2.5 6.7c.1.3 0 .7-.4.8h-.2c-.3 0-.5-.1-.6-.4l-.4-1.5Zm-.5-1.2-.9-2.4-.9 2.4h1.8ZM148.7 331.9v-6.7c0-.4.3-.6.6-.6h1.3c2.2 0 4 1.8 4 4s-1.8 4-4 4h-1.3c-.4-.1-.6-.4-.6-.7Zm1.2-.7h.7c1.5 0 2.7-1.2 2.7-2.7 0-1.5-1.2-2.7-2.7-2.7h-.7v5.4ZM156.5 331.9v-6.7c0-.4.3-.6.6-.6h1.3c2.2 0 4 1.8 4 4s-1.8 4-4 4h-1.3c-.3-.1-.6-.4-.6-.7Zm1.3-.7h.7c1.5 0 2.7-1.2 2.7-2.7 0-1.5-1.2-2.7-2.7-2.7h-.7v5.4ZM173 325.8h-1.8v6.1c0 .4-.3.6-.6.6s-.6-.3-.6-.6v-6.1h-1.8c-.4 0-.6-.3-.6-.6 0-.4.3-.6.6-.6h4.9c.3 0 .6.3.6.6-.1.3-.4.6-.7.6ZM181.2 325.5c.7.8 1.1 1.8 1.1 2.9 0 1.1-.4 2.1-1.1 2.9-.7.7-1.7 1.2-2.7 1.2-1.1 0-2.1-.5-2.8-1.2-.7-.7-1.1-1.8-1.1-2.9 0-1.1.4-2.1 1.1-2.9.7-.8 1.7-1.2 2.8-1.2 1 0 2 .5 2.7 1.2Zm-.2 2.9c0-.8-.3-1.5-.8-2s-1.1-.8-1.8-.8-1.4.3-1.8.8c-.5.5-.8 1.2-.8 2s.3 1.5.8 2 1.1.8 1.8.8 1.3-.3 1.8-.8.8-1.2.8-2ZM187.6 328.4c0-2.3 1.9-4.1 4.2-4.1 1 0 1.9.3 2.6.9.3.2.3.6.1.9-.2.3-.6.3-.9.1-.5-.4-1.1-.6-1.8-.6-.8 0-1.5.3-2 .8s-.8 1.2-.8 2 .3 1.5.8 2 1.3.8 2 .8 1.3-.2 1.8-.6c.3-.2.7-.1.9.1.2.3.2.7-.1.9-.7.6-1.6.9-2.6.9-2.3 0-4.2-1.8-4.2-4.1ZM200.6 330.6h-2.8l-.6 1.5c-.1.3-.3.4-.6.4h-.2c-.3-.1-.5-.5-.4-.8l2.5-6.7c.1-.3.4-.4.6-.4.3 0 .5.1.6.4l2.5 6.7c.1.3 0 .7-.4.8h-.2c-.3 0-.5-.1-.6-.4l-.4-1.5Zm-.4-1.2-.9-2.4-.9 2.4h1.8ZM209.2 331.5c.1.3-.1.7-.4.8h-.3c-.1 0-.3 0-.4-.1-.1-.1-.3-.2-.4-.4-.2-.3-.2-.7-.2-1.4 0-.2-.1-.4-.1-.5l-.3-.3c-.2-.2-.5-.3-.6-.3H205v2.5c0 .3-.3.6-.6.6-.4 0-.6-.3-.6-.6v-6.7c0-.4.3-.6.6-.6h2c1.4 0 2.4 1.1 2.4 2.4 0 .8-.3 1.4-.9 1.9l.4.4c.2.3.4.8.4 1.2v.7c.3.1.4.3.5.4Zm-1.6-4.5c0-.7-.5-1.2-1.2-1.2H205v2.3h1.4c.7 0 1.2-.5 1.2-1.1ZM215.7 325.8h-1.8v6.1c0 .4-.3.6-.6.6s-.6-.3-.6-.6v-6.1h-1.8c-.4 0-.6-.3-.6-.6 0-.4.3-.6.6-.6h4.9c.3 0 .6.3.6.6-.1.3-.4.6-.7.6Z"/><path fill="#F7A9A0" d="M289 403.2c2.2.7 64.2-.1 66.5-1.6.9-.6 1.3-9.6 1.5-20.6v-.3c0-2.3.1-4.6.1-6.9v-1c.1-15.8-.2-32.2-.2-32.2l-41.5.4 1.2 31.9v1.3l.3 6.6v.7s-23.6 10.9-26 12.9c-2.3 1.8-4.1 8.1-1.9 8.8Z"/><path fill="#EBEBEB" d="M289 403.2c2.2.7 64.2-.1 66.5-1.6.9-.6 1.3-9.6 1.5-20.6v-.3c0-2.3.1-4.6.1-6.9v-1l-40.4.1v1.3l.3 6.6v.7s-23.6 10.9-26 12.9c-2.4 1.8-4.2 8.1-2 8.8Z"/><path fill="#FFC727" d="M289 403.2c1.3.4 25.4.3 44.2-.2 11.7-.3 21.5-.8 22.4-1.4.9-.6 1.3-9.4 1.5-20.1v-.9l-40 .1v.7s-23.6 10.9-26 12.9c-2.5 1.9-4.3 8.2-2.1 8.9Z"/><path fill="#263238" d="M289.6 400.8c10.5-.4 52.6-1 63-.6.1 0 .1.1 0 .1-10.4.6-52.5.9-63 .7-.2-.1-.2-.2 0-.2ZM312.5 380.9c4.1-.8 9.1-.3 12.3 2.6.1.1 0 .3-.2.2-4.1-1.2-7.9-2-12.1-2.4-.3.1-.3-.4 0-.4ZM309.6 382.7c4.1-.8 9.1-.3 12.3 2.6.1.1 0 .3-.2.2-4.1-1.2-7.9-2-12.1-2.4-.3.1-.3-.3 0-.4ZM306.6 384.5c4.1-.8 9.1-.3 12.3 2.6.1.1 0 .3-.2.2-4.1-1.2-7.9-2-12.1-2.4-.2.1-.3-.3 0-.4Z"/><path fill="#263238" d="M309 377.8c2.9 2.2 6.7 3.1 10.2 4.3.4.1.6-.2.6-.5.1 0 .1-.1.1-.1-1.2-3.4-3.6-7-6.5-9.3-1.7-1.4-4.8-2.4-6.3-.1-1.5 2 .2 4.4 1.9 5.7Zm-1.1-3.3c-.8-4.5 4.1-2.2 5.3-1.1.8.7 1.5 1.5 2.2 2.3 1.4 1.7 2.6 3.6 3.9 5.4-1.6-.7-3.3-1.3-5-1.9-2-.7-6-2.2-6.4-4.7Z"/><path fill="#263238" d="M333.5 375c-1-2.6-4.2-2.3-6.2-1.3-3.3 1.6-6.5 4.5-8.4 7.6 0 .1 0 .1.1.2-.1.3.1.7.5.7 3.6-.4 7.5-.4 10.9-1.9 1.9-.9 4.1-2.9 3.1-5.3Zm-8.7 5.4c-1.8.2-3.5.4-5.3.7 1.6-1.5 3.2-3 5-4.3.9-.6 1.8-1.3 2.7-1.8 1.5-.8 6.7-1.9 4.9 2.3-1 2.3-5.2 2.8-7.3 3.1ZM294.8 392.5c2.5-.1 4.9 1 6.3 2.5 1.3 1.4 2.5 3.4 2.4 5.6 0 .1-.1.1-.1 0-.7-4.1-4.4-7.6-8.6-7.9-.1-.1-.1-.2 0-.2ZM350 390.7c4.7-.1 4.8 7.3.1 7.3-4.8 0-4.9-7.3-.1-7.3Z"/><path fill="#263238" d="M333.1 402.9c11.7-.3 21.5-.8 22.4-1.4.9-.6 1.3-9.4 1.5-20.1-4.8 4.3-16.8 15-23.9 21.5Z"/><path fill="#455A64" d="M369.6 161.9s-9.3 104.8-10.8 112.8c-.4 1.8-.6 11.7-.7 24.5-.3 27.8-.1 77.9-.1 77.9h-43.7s1.3-86.8 3.2-102.8c1.9-16 14.3-112.4 14.3-112.4h37.8Z"/><path fill="#263238" d="M316.2 369.4c6.8-.1 4.9-.2 11.7-.3 3.3 0 25.3-.2 28.4.3.1 0 .1.1 0 .1-3.1.5-25.1.3-28.4.3-6.8-.1-4.9-.1-11.7-.3-.1.1-.1-.1 0-.1ZM349.7 319.8c0-6.3.1-12.7.1-19 0-6.1 0-12.3.3-18.4.6-12.4 3.1-24.6 4.9-36.9 1.8-12.3 3.3-24.6 4.6-37 1.5-13.9 2.9-27.7 4.3-41.6 0-.1.2-.1.1 0-2.1 24.7-4.4 49.5-7.8 74.1-.9 6.1-1.8 12.2-2.8 18.3-1 6.2-2 12.3-2.5 18.6-.5 6.1-.6 12.2-.6 18.4-.1 6.3-.1 12.7-.2 19-.1 14.1-.3 35.7-.4 49.8 0 .3-.4.3-.4 0 .2-12.6.3-32.7.4-45.3Z"/><path fill="#263238" d="M378.9 161.9s-18.5 104.8-20 112.8c-.4 1.8-.6 11.7-.7 24.5l-20.8-137.3h41.5Z"/><path fill="#F7A9A0" d="M339.7 406.9c2.2.5 64-4.6 66.3-6.3.9-.6.6-9.7 0-20.6v-.3c-.1-2.3-.3-4.6-.4-6.9 0-.3 0-.6-.1-1-1-15.8-2.4-32.1-2.4-32.1l-41.4 3.4 3.5 31.7.1 1.3.7 6.6.1.7s-22.8 12.6-25 14.7c-2.2 1.9-3.6 8.2-1.4 8.8Z"/><path fill="#EBEBEB" d="M339.7 406.9c2.2.5 64-4.6 66.3-6.3.9-.6.6-9.7 0-20.6v-.3c-.1-2.3-.3-4.6-.4-6.9 0-.3 0-.6-.1-1l-40.3 3 .1 1.3.7 6.6.1.7s-22.8 12.6-25 14.7c-2.2 1.9-3.6 8.2-1.4 8.8Z"/><path fill="#FFC727" d="M339.7 406.9c2.2.5 64-4.6 66.3-6.3.9-.6.6-9.7 0-20.6v-.3l-39.9 2.9.1.7s-22.8 12.6-25 14.7c-2.3 2-3.7 8.3-1.5 8.9Z"/><path fill="#263238" d="M340.2 404.4c10.4-1.1 52.4-4.7 62.8-5 .1 0 .1.1 0 .1-10.3 1.3-52.4 4.6-62.8 5.1-.2 0-.2-.2 0-.2ZM361.7 383c4-1.1 9.1-.9 12.5 1.8.1.1 0 .3-.2.3-4.2-.9-8-1.4-12.3-1.5-.3-.1-.3-.6 0-.6Z"/><path fill="#263238" d="M358.8 385c4-1.1 9.1-.9 12.5 1.8.1.1 0 .3-.2.3-4.2-.9-8-1.4-12.3-1.5-.2-.1-.2-.5 0-.6Z"/><path fill="#263238" d="M356 387c4-1.1 9.1-.9 12.5 1.8.1.1 0 .3-.2.3-4.2-.9-8-1.4-12.3-1.5-.2-.1-.3-.5 0-.6ZM357.9 380.2c3.1 2 6.9 2.6 10.4 3.6.4.1.6-.3.6-.6.1 0 .1-.1.1-.2-1.4-3.3-4.1-6.8-7.1-8.9-1.8-1.3-4.9-2-6.3.3-1.4 2.3.5 4.6 2.3 5.8Zm-1.3-3.3c-1.1-4.4 3.9-2.5 5.2-1.5.8.6 1.6 1.4 2.4 2.2 1.6 1.6 2.9 3.4 4.3 5.1-1.7-.6-3.4-1-5.1-1.5-2.1-.6-6.2-1.8-6.8-4.3Z"/><path fill="#263238" d="M382.2 375.6c-1.2-2.5-4.3-2-6.3-.9-3.1 1.8-6.2 5-7.9 8.2 0 .1 0 .1.1.2 0 .3.2.7.5.6 3.6-.7 7.5-.9 10.7-2.6 1.9-1 4-3.1 2.9-5.5Zm-8.4 6c-1.7.4-3.5.6-5.2 1.1 1.5-1.6 3-3.2 4.7-4.7.8-.7 1.7-1.4 2.6-1.9 1.4-.9 6.6-2.4 5.1 1.9-.9 2.4-5.1 3.2-7.2 3.6ZM343.8 396.1c2.5-.4 5 .6 6.5 1.9 1.4 1.3 2.7 3.2 2.9 5.3 0 .1-.1.1-.1 0-1-4-5.1-7.2-9.2-7.1-.1.1-.1-.1-.1-.1ZM398.6 389.5c4.7-.5 5.4 6.8.7 7.3s-5.4-6.8-.7-7.3Z"/><path fill="#455A64" d="m364.3 379.4 43.7-1.9s-11.9-95.8-12.1-101.7c-.6-15.3-10.7-114-10.7-114h-53.3s3.4 22.8 9.1 37.2c0 0 4.4 1.4 11.2 5.1 0 0 5 65.3 5.2 73.4.2 16.2 6.9 101.9 6.9 101.9Z"/><path fill="#263238" d="M365.5 371.4c6.8-.4 4.8-.4 11.7-.8 3.3-.2 25.2-1.3 28.4-.9.1 0 .1.1 0 .1-3.1.6-25 1.4-28.4 1.5-6.8.2-4.9.1-11.7.2-.2.1-.2-.1 0-.1ZM381.2 167.7c2 24.9 4 49.7 6.3 74.5 2.3 24.9 5 49.8 8.2 74.6 1.8 13.9 3.8 33.4 6 47.2 0 .1-.1.1-.1 0-4.4-24.5-7.6-55-10.4-79.8-2.8-24.8-5-49.6-7-74.4-1.1-14-2.2-28.1-3.2-42.2-.1-.1.2-.1.2.1ZM339 198.1c4.5 1.6 8.9 3.8 13.1 6.1.2.1.1.3-.1.3-4.4-1.9-8.9-3.7-13.2-5.8-.4-.2-.2-.7.2-.6ZM337.6 167.9c0-.2.3-.2.3 0 0 5.2.3 9.8.7 14.7.2 2.3 2 14.8 6 13.9.7-.2 1-.8 1.1-1.8.1-1.2-.3-2.7-.5-3.8-.4-2.6-.8-5.3-1-7.9-.4-4.9-.4-9.9.2-14.8 0-.2.3-.1.3 0 0 6.8.2 13.7 1.2 20.5.5 3.3 2.1 8.2-1.3 8.7-3.5.5-5.7-7.7-6.1-10-1.4-6.4-1.4-13.2-.9-19.5Z"/><path fill="#263238" d="M344.4 196.8c.4.8.6 1.7.9 2.6.2.7.4 1.4.4 2.1 0 .1-.2.2-.3.1-.5-.6-.7-1.4-.9-2.1l-.9-2.4c-.2-.5.6-.8.8-.3Z"/><path fill="#C7C7C7" d="m167.6 381.8-.2-2 105.5-5.4-7.8-47 2-.3 8.2 49.2-107.7 5.5Z"/><path fill="#37474F" d="M180.284 395.071c4.785-3.743 5.63-10.656 1.887-15.44-3.743-4.785-10.656-5.63-15.441-1.887s-5.629 10.656-1.886 15.441c3.743 4.784 10.656 5.629 15.44 1.886Z"/><path fill="#EBEBEB" d="M168.5 386.4c0 2.8 2.2 5 5 5s5-2.2 5-5-2.2-5-5-5c-2.7-.1-5 2.2-5 5Z"/><path fill="#37474F" d="M260.63 397.105c5.911-1.402 9.566-7.33 8.164-13.242-1.402-5.911-7.331-9.566-13.242-8.164-5.911 1.402-9.566 7.331-8.164 13.242 1.402 5.911 7.331 9.566 13.242 8.164Z"/><path fill="#EBEBEB" d="M253 386.4c0 2.8 2.2 5 5 5s5-2.2 5-5-2.2-5-5-5c-2.7-.1-5 2.2-5 5Z"/><path fill="#C7C7C7" d="m186.4 394-.1-2 105.5-5.4-10.3-61.7 2-.3 10.6 63.8-107.7 5.6Z"/><path fill="#37474F" d="M199.409 406.967c4.675-3.879 5.321-10.813 1.442-15.489-3.879-4.675-10.814-5.321-15.489-1.442-4.676 3.879-5.321 10.814-1.442 15.489 3.879 4.676 10.813 5.321 15.489 1.442Z"/><path fill="#EBEBEB" d="M187.4 398.5c0 2.8 2.2 5 5 5s5-2.2 5-5-2.2-5-5-5-5 2.3-5 5Z"/><path fill="#37474F" d="M287.046 402.796c2.341-5.606-.306-12.048-5.912-14.389-5.606-2.341-12.048.306-14.389 5.912-2.341 5.606.306 12.049 5.912 14.389 5.606 2.341 12.049-.306 14.389-5.912Z"/><path fill="#EBEBEB" d="M271.9 398.5c0 2.8 2.2 5 5 5s5-2.2 5-5-2.2-5-5-5c-2.7 0-5 2.3-5 5Z"/><path fill="#A6A6A6" d="m163.8 321.1-15.4-70.2 105-17 1.1 73.4-.9.1-89.8 13.7Zm-13-68.6 14.6 66.4 87.1-13.3-1-69.3-100.7 16.2Z"/><path fill="#A6A6A6" d="m175.189 247.561-1.976.309 10.815 69.16 1.976-.309-10.815-69.16ZM203.341 243.112l-1.988.219 7.705 69.878 1.988-.219-7.705-69.878ZM230.786 239.097l-1.998.086 3.042 70.436 1.998-.086-3.042-70.436Z"/><path fill="#A6A6A6" d="m253.328 256.161-98.794 17.892.357 1.968 98.793-17.892-.356-1.968ZM253.312 282.736l-93.767 13.926.294 1.978 93.767-13.926-.294-1.978Z"/><path fill="#DBDBDB" d="m297.2 324.4-44.7-17.3v-73.3l68.3 19.8-23.6 70.8Zm-42.8-18.7 41.5 16 22.2-66.8-63.8-18.5v69.3h.1Z"/><path fill="#DBDBDB" d="m253.813 256.195-.715 1.868 57.715 22.1.715-1.868-57.715-22.1ZM253.772 282.814l-.756 1.852 49.443 20.169.756-1.852-49.443-20.169Z"/><path fill="#DBDBDB" d="m275.207 241.497-9.312 69.986 1.983.263 9.312-69.985-1.983-.264ZM297.338 247.89l-15.664 69.56 1.951.44 15.665-69.561-1.952-.439ZM269.508 178.109l-17.025 56.803 1.916.574 17.025-56.803-1.916-.574ZM337.019 191.604l-18.662 62.263 1.916.575 18.661-62.264-1.915-.574Z"/><path fill="#263238" d="m266.373 175.302-.806 3.918 76.597 15.765.806-3.918-76.597-15.765Z"/><path fill="#FFC727" d="m221.8 258.3 18.9 8.7 31.1-6.2-18.6-5.3-31.4 2.8Z"/><path fill="#000" d="m221.8 258.3 18.9 8.7 31.1-6.2-18.6-5.3-31.4 2.8Z" opacity=".1"/><path fill="#E6A36E" d="M254.6 261c.2 8 2.1 46.3-5.3 47-2.6.3-5-5.7-6.8-14.6-.2-.9-.4-1.8-.5-2.7-.6-3.3-1.1-7-1.6-10.8l-.3-2.7c-.4-3.5-.7-7.2-.9-10.9 0-.9-.1-1.8-.1-2.7 0-.8-.1-1.5-.1-2.3-.1-2.5-.1-5-.1-7.4v-2.7c.1-5 .3-9.7.6-14.1.1-.9.1-1.7.2-2.5 1.1-11.2 3.2-19.3 6.1-20.1 6.2-1.6 8.2 26.6 8.8 46.5Z"/><path fill="#CC8A58" d="M249.7 288.7c-.1.1-.2.1-.3.2l-.1.1c-2.6.9-4.9 2.4-6.8 4.6-.2-.9-.4-1.8-.5-2.7 2.3-1.9 5.1-3 7.5-2.6h.2c.1 0 .2.2 0 .4ZM248.8 277.2c-.1 0-.2.1-.3.1l-.1.1c-2.7.1-5.4.9-7.7 2.5-.1.1-.2.1-.3.2l-.3-2.7c2.8-1.5 6.1-1.8 8.6-.7l.1.1h.1s.1.3-.1.4ZM248.2 265.5h-.5c-2.7-.5-5.4-.4-8 .7l-.6.3c0-.9-.1-1.8-.1-2.7 3.1-1 6.7-.6 9.1 1.1 0 0 .1 0 .1.1 0 0 .1 0 .1.1.1.1.2.4-.1.4ZM247.8 253.2h-.5c-2.7-.5-5.4-.4-8 .7-.2.1-.3.1-.4.2v-2.7c3-.9 6.5-.5 8.8 1.2 0 0 .1 0 .1.1 0 0 .1 0 .1.1.1.1.1.4-.1.4ZM247.8 238.7c-.1 0-.2 0-.3-.1h-.2c-2.5-1.1-5.2-1.6-7.8-1.3.1-.9.1-1.7.2-2.5 3 0 6.2 1.2 8.1 3.3v.1l.1.1c.1.2.1.5-.1.4Z"/><path fill="#EDAA76" d="M266.3 265.8c-1.1 7.9-5.7 45.7-13.1 44.7-2.6-.3-4-6.7-4.3-15.8 0-.9-.1-1.8-.1-2.7 0-3.4 0-7.1.2-10.9 0-.9.1-1.8.2-2.7.2-3.5.6-7.2 1-10.8.1-.9.2-1.8.3-2.6.1-.7.2-1.5.3-2.2.3-2.4.7-4.9 1.1-7.3.2-.9.3-1.8.5-2.6.9-4.8 1.9-9.4 3-13.6l.6-2.4c2.9-10.7 6.4-18.1 9.4-18.2 6.5-.4 3.7 27.6.9 47.1Z"/><path fill="#CC8A58" d="M257 291.7c-.1.1-.2.1-.3.1l-.1.1c-2.7.3-5.2 1.2-7.5 2.9 0-.9-.1-1.8-.1-2.7 2.6-1.3 5.5-1.7 7.9-.8 0 0 .1 0 .1.1h.1c0-.1.1.2-.1.3ZM258 280.2h-.5c-2.7-.5-5.4-.4-8 .6-.1 0-.2.1-.3.1 0-.9.1-1.8.2-2.7 3-.8 6.3-.3 8.6 1.3l.1.1s.1 0 .1.1c0 .2 0 .5-.2.5ZM259.4 268.7c-.1 0-.2 0-.3-.1h-.2c-2.6-1.1-5.3-1.6-8-1.2-.2 0-.4.1-.6.1.1-.9.2-1.8.3-2.6 3.2-.2 6.7 1 8.8 3.3v.1l.1.1c.1 0 .1.3-.1.3ZM261 256.6c-.1 0-.2 0-.3-.1h-.2c-2.6-1.1-5.3-1.6-8-1.2-.2 0-.3.1-.5.1.2-.9.3-1.8.5-2.6 3.1-.2 6.5 1.1 8.5 3.3v.1l.1.1c.1.1.1.3-.1.3ZM263.4 242.5c-.1 0-.2-.1-.3-.2-.1 0-.1 0-.2-.1-2.3-1.7-4.8-2.8-7.5-3.1l.6-2.4c3 .7 5.9 2.6 7.4 5.1v.1s0 .1.1.1c.2.3.2.5-.1.5Z"/><path fill="#FFC727" d="M221.8 258.3s1.2 38.2.8 39.7c-.4 1.5-2.7 19.4-2.5 19.9.2.5 18.2 10.8 18.8 10.2.6-.6 1.7-26.4 1.7-29.6 0-3.2.2-31.6.2-31.6l-19-8.6Z"/><path fill="#FFC727" d="m240.7 267-1.9 61.1s29.2-8.6 29.4-9.1c.3-.5 1.7-17.8 1.3-20.5-.4-2.7 2.2-37.7 2.2-37.7l-31 6.2Z"/><path fill="#000" d="m240.7 267-1.9 61.1s29.2-8.6 29.4-9.1c.3-.5 1.7-17.8 1.3-20.5-.4-2.7 2.2-37.7 2.2-37.7l-31 6.2Z" opacity=".1"/><path fill="#DBDBDB" d="m200.2 336.4-36.4-15.2-.1-.5-15.4-70.1 45.2 18.5 6.7 67.3Zm-34.7-16.7 32.3 13.5-6.2-62.8-40.6-16.6 14.5 65.9Z"/><path fill="#DBDBDB" d="m163.501 256.936-1.97.346 11.788 67.072 1.97-.347-11.788-67.071ZM178.374 263.295l-1.98.282 9.412 66.132 1.98-.282-9.412-66.132Z"/><path fill="#DBDBDB" d="m160.905 302.351-.66 1.888 36.627 12.804.66-1.888-36.627-12.804ZM155.031 274.473l-.737 1.86 39.973 15.845.737-1.859-39.973-15.846Z"/><path fill="#EBEBEB" d="m200.1 336.3-8.7-67.4 129.3-15.4-23.6 70.9-.6.1-96.4 11.8Zm-6.4-65.7 8.2 63.5 93.8-11.5 22.2-66.7-124.2 14.7Z"/><path fill="#EBEBEB" d="m222.353 266.232-1.992.174 5.682 65.151 1.992-.174-5.682-65.151ZM254.912 262.122l-3.826 66.287 1.997.115 3.825-66.287-1.996-.115ZM287.941 258.116l-12.732 67.406 1.965.372 12.733-67.407-1.966-.371Z"/><path fill="#EBEBEB" d="m311.527 276.807-116.959 13.158.224 1.988 116.958-13.159-.223-1.987ZM302.903 302.986l-105.826 11.065.208 1.99 105.826-11.066-.208-1.989Z"/><path fill="#F7A9A0" d="M345.1 108.4c-5.4 8.4-25.2 39-37.6 39-7.5 0-32.8-12.7-38.3-17-6.5-5 11-20.8 15.5-18.9 5.6 2.3 20.7 11.2 24.3 11.2 3.2 0 12.3-10.2 29.5-21.4 8.8-5.9 11.3-.2 6.6 7.1Z"/><path fill="#F7A9A0" d="M269.8 130.8c-2.3-1.1-12.6-7.2-15.1-9.5s-9.1-9.6-7.6-11.7c1.5-2.1 3.7-.1 3.7-.1s-2.3-3.5-.5-5.5c1.8-2 5 1.2 5 1.2s-2.1-3.8-.2-5.6c1.9-1.8 4.6 1.9 4.6 1.9s-2.1-3.4.1-4.2c2.7-1 5.9 5.6 8.8 8 .7.5 14.3 9.9 14.3 9.9l-13.1 15.6Z"/><path fill="#263238" d="M259.5 101.3c2.4 4.9 4.2 6.6 8.8 9.4.1.1 0 .2-.1.1-4.7-2.4-7.3-4.2-8.9-9.4-.1-.3.1-.4.2-.1ZM255.1 104.9c2.9 4.8 4.9 6.7 9.4 10 .1 0 0 .2-.1.1-4.7-2.9-7.3-4.7-9.6-10 0-.2.2-.3.3-.1ZM251.1 109.7c3.1 4.5 5.3 6.6 10.1 9.3.1.1 0 .2-.1.2-5.2-2.2-7.8-4.9-10.1-9.4-.2-.3-.1-.4.1-.1Z"/><path fill="#FFC727" d="M249.7 110.8c3.4 11.2 14 9.8 17 8.9 3-.9 12.5-5.6 9.1-16.9-3.4-11.2-14.7-8.6-16.7-8-2.3.7-12.9 4.8-9.4 16Z"/><path fill="#455A64" d="M260 96.3s.5 4.2 7.9 1.7c0 0-5-5.3-7.9-1.7Z"/><path fill="#455A64" d="M260.7 98.1s3.5.2 2.5-6.1c0 0-5 3.2-2.5 6.1Z"/><path fill="#455A64" d="M260.5 96.9s-1.2 3.3-6.6-.2c0 0 5-3.2 6.6.2Z"/><path fill="#455A64" d="M260.2 96.1s-3.2 2.7 3 7.5c0 0 1.6-7.1-3-7.5Z"/><path fill="#455A64" d="M259.9 96.7s-4.7-1.3-4.1 6.7c0 0 7.2-2.5 4.1-6.7Z"/><path fill="#455A64" d="M260.7 97.7s.6-4.2-2.9-7.1c0 0-2 0-2.5 2.1 0 0 4 2.2 4.3 5.9l.9-.6"/><path fill="#F7A9A0" d="M287.9 114.8s-1.9-6.5-3.4-9.2c-1.5-2.7-10.6-10.6-12.4-8.7-2.4 2.4 2 8 4.5 10.5 0 0-5.5 5.6-3.2 10.3 2.2 4.8 14.5-2.9 14.5-2.9Z"/><path fill="#263238" d="M271.6 97.8c-.6 3.8 2.9 6.8 5.2 9.4.2.2.1.4-.1.5-2.1 2.5-4.4 6.6-3.5 10 0 .1-.1.1-.1.1-1.4-3.5.5-7.7 3-10.3-2.4-2.7-5.8-5.9-4.5-9.7Z"/><path fill="#FFC727" d="m317 114.2 16.7 14.9s9.5-11.4 13.4-22.4c3.9-11-5.5-9.6-12.1-5.2-6.7 4.4-18 12.7-18 12.7Z"/><path fill="#263238" d="M335.6 125.5c-7.3-5.8-12.8-11.9-14.1-13.1-.1-.1 0-.1.1-.1 1.2 1.2 8.6 7.5 14.1 13.1l-.1.1Z"/><path fill="#263238" d="M347.1 106.7c-3.9 10.9-13.4 22.4-13.4 22.4l-7.7-6.9c5.1-7.1 13.3-18.4 17.4-23.9 3.7-.2 6.1 1.9 3.7 8.4Z"/><path fill="#FFC727" d="M326 176c1 1 62.5.4 62.8 0 .8-1.1-8.6-40.8-15.7-55.8-9.1-19.3-13.9-20.9-16.7-22-3.7-1.4-13.2-.8-14.8-.1-1.8.8-6.3 9.8-8.4 17-4.2 14.4-8.1 60-7.2 60.9Z"/><path fill="#F7A9A0" d="M365.6 116.1c-.3 18.9-1.1 41.3-6.4 47.6-7.9 9.6-27.8 19.4-35.9 21.2-3.4.8-12.9-24.8-9.2-25.6 7.7-1.6 25.4-8.9 27-10.5 1.5-1.5 7.7-19.9 12.6-34.1 5.9-17.1 12.1-9.5 11.9 1.4Z"/><path fill="#F7A9A0" d="M318.3 158.3s-10.2 2.6-16.8 4.6c-3.7 1.1-9.8 3.6-12.1 5.7-3.5 3.1-16.1 18.2-12.5 21.3 3.3 2.8 12.4-11.5 12.4-11.5s-10.5 13.7-6 16.4c4.6 2.7 12.7-14.9 12.7-14.9s-10.5 14.3-5.4 16.3c3.9 1.5 12.2-14 12.2-14s-8.9 12.4-5 14.1c4.3 1.9 12.9-11.9 12.9-11.9 10.7 2.8 17-.3 21.1-3 1.1-.7-13.5-23.1-13.5-23.1Z"/><path fill="#263238" d="M292.6 173.5c-1.3 1.6-2.6 3.1-3.8 4.8-1.2 1.7-2.2 3.4-3.2 5.2-2.4 4.3-3.3 7.4-3.2 7.3 1.7-4.4 5.7-10.4 6.9-12.1 1.2-1.8 2.2-3.5 3.3-5.2.1 0 0-.1 0 0ZM298.7 177.5c-2.2 1.8-6.9 8.3-8.7 12.7-.1.2 0 .2.1 0 1.5-2.1 7.2-10.6 8.6-12.7.1 0 .1 0 0 0ZM304.6 180.1c-2.6 2.5-4.7 6-6.4 10-.1.2.1.2.2 0 2.1-3.4 3.7-6 6.4-9.9 0-.1-.1-.2-.2-.1Z"/><path fill="#FFC727" d="m345.1 132.5 22.1 3.3s1.7-14.8-1-26.1-9.8-5-13 2.3c-3.2 7.4-8.1 20.5-8.1 20.5Z"/><path fill="#263238" d="M366.6 131.5c-9.3-.6-17.3-2.6-19-2.8-.1 0-.1-.1 0-.1 1.7.3 11.3 1.3 19 2.8.1 0 0 .1 0 .1Z"/><path fill="#263238" d="M348.3 124.9c1-2.5 2.5-6.1 3.3-8.6 0 0 0-.1-.1 0-.6 1.3-1.2 2.7-1.8 4.1 0-.1 0-.2.1-.2.1-.8.3-1.5.3-2.3-.2.8-.4 1.5-.6 2.3l-.3 1.5c-.3.7-1.1 2.5-1.3 3.2-.5 1.2-3.2 7.9-3.1 7.9.2 0 2.3.3 2.7.3.1 0 .1-.2 0-.2-.4 0-2.1-.3-2.3-.3.5-1.3 1-2.5 1.6-3.8l1.5-3.9ZM368.6 121.2c-.2.7-.3 1.3-.4 2 0 .2-.1.5-.1.7-.1-1.7-.2-3.3-.4-5h-.1c.2 2.8.1 5.6 0 8.3 0 1.4-.1 2.7-.2 4.1 0 .7-.1 1.4-.1 2.1 0 .8-.1 2.3-.1 2.3-.4-.1-1.7-.2-2.1-.3-.1 0-.1.1 0 .1.4.1 2.4.4 2.4.4 0-.7.2-1.6.3-2.3.1-.7.1-1.3.2-2 .1-1.4.2-2.9.2-4.3v-2.4c.1-.6.3-1.2.4-1.8.1-.7.2-1.4.3-2-.1 0-.3 0-.3.1Z"/><path fill="#F7A9A0" d="M343.4 108c3.4 1 9.7-3.9 12.3-8.1.2-.3-.1-3.4-.2-7.2-.1-2.3-.1-4.9 0-7.3 0-.5-15 2.7-15 2.7s1.2 5 .9 9.1c0 .3-.1.7-.2 1v.2c-.4 1.8-1.1 8.6 2.2 9.6Z"/><path fill="#263238" d="M354.6 85.4c-.9 3.9-4 13.4-11.9 13.1-.6 0-1.1-.1-1.5-.2v-.2c.1-.3.1-.6.2-1 .3-4.1-.9-9.1-.9-9.1s10.8-2.2 14.1-2.6Z"/><path fill="#F7A9A0" d="M356.3 66.5c2 5.1.4 20.5-3 24.1-5 5.3-13.8 6.5-18.5.3-4.5-6-2.1-25.9 1.8-29.3 5.8-5 16.8-2.7 19.7 4.9Z"/><path fill="#263238" d="M342.6 76.9c0-.1.1 0 0 0-.1 1.1 0 2.3.9 2.8v.1c-1.2-.4-1.2-2-.9-2.9Z"/><path fill="#263238" d="M343.6 75.9c1.7 0 1.5 3.4-.1 3.4-1.5-.1-1.3-3.4.1-3.4ZM336.8 76.6c0-.1-.1 0 0 0-.1 1.1-.3 2.3-1.3 2.6v.1c1.2-.2 1.4-1.7 1.3-2.7Z"/><path fill="#263238" d="M335.9 75.4c-1.7-.2-2 3.1-.4 3.3 1.5.3 1.8-3.1.4-3.3ZM345 74.4c-.4-.1-.8-.3-1.3-.5s-.9-.3-1.2-.8c-.2-.2-.1-.7.2-.9.5-.4 1.2-.3 1.8-.1.6.2 1.1.6 1.4 1.2.4.7-.3 1.3-.9 1.1ZM334.7 73.7c.5 0 .9-.2 1.4-.3.5-.1.9-.1 1.3-.5.2-.2.2-.6 0-.9-.4-.5-1.1-.5-1.7-.4-.7.1-1.2.4-1.6.9-.5.5 0 1.2.6 1.2ZM343.8 86.6c-.3.2-.5.5-.9.6-.4 0-.8-.2-1.1-.3 0 0-.1 0 0 .1.2.4.8.7 1.3.6.4-.1.6-.5.7-1 .1 0 0 0 0 0ZM342.9 83.5c-.6.9-1.5 1.3-2.4 1.4-.4.1-.9 0-1.3 0h-.4c-.1 0-.2-.1-.2-.2v-.2c0-.8.2-2 .2-2-.3.1-1.8.7-1.8.3.4-3.4.9-7.3 2-10.6 0-.1.2-.1.2 0-.3 3.3-1.1 6.6-1.4 9.9.5-.2 1.3-.4 1.7-.4.1 0-.3 2.3-.3 2.7 1.2.1 2.2-.2 3.7-.9-.1-.2 0-.1 0 0Z"/><path fill="#263238" d="M339.6 84.5s.7 1 1.6 1.4c.3.1.7.2 1.1.1.8-.2.9-.9.8-1.6-.1-.5-.3-1-.3-1s-1.2 1.1-3.2 1.1Z"/><path fill="#FF6596" d="M341.2 85.9c.3.1.7.2 1.1.1.8-.2.9-.9.8-1.6-.8.1-1.7.6-1.9 1.5Z"/><path fill="#263238" d="M334.7 67.6c5.1 3.5 12-1.8 12-1.8 1.6 4 5.6 3.5 5.6 3.5s1 8.6 3.3 8.6c3.5 0 4.5-11.8 3.4-14.1-1.1-2.3-4-2.9-4-2.9s-.2-1.8-2.3-3.4c-2.4-1.8-10.5.6-10.5.6s-.6-1.5-2.1-2.8c-1-.8-2.3-.7-3.1.3.4.6.7 1.3.8 2.1.4 2.5-1.7 2.5-1.6.2 0-1 .3-1.8.8-2.4-1-1.5-2.7-2-3.7-1.2-1.7 1.6-2.8 10.4 1.4 13.3Z"/><path fill="#F7A9A0" d="M354.1 79.1s3.1-5.1 5.4-4c2.3 1.1.1 8.3-2.4 9.5-2.6 1.1-3.6-1.2-3.6-1.2l.6-4.3Z"/><path fill="#263238" d="M358.8 77.1c.1 0 .1.1 0 0-1.8.9-2.6 2.7-3.2 4.5.5-.7 1.2-1.1 2.2-.5v.1c-.8-.1-1.3 0-1.8.7-.3.4-.5 1-.8 1.5-.1.2-.4.1-.3-.1-.2-2.4 1.4-5.8 3.9-6.2Z"/><path fill="#FFC727" d="M54.2 315.6c.4-9.7.2-19.4-.4-29-1.3-19.9-4.6-39.7-9.1-59.2-2.5-10.9-5.7-21.7-8.9-32.5-.1-.3-.6-.2-.5.1 10.1 37.9 18.3 77 17.8 116.4-.2 11-1.4 21.9-2.5 32.8 0 .3.5.4.5.1 2-9.3 2.7-19.1 3.1-28.7Z"/><path fill="#FFC727" d="M35.3 195s-15.2 38.7-11.8 47.8c3.4 9.1 10.5 11 10.5 11s-9.3 13.3-2.8 25.8c6.5 12.5 21 11.9 22 26.1-.2 0 .6-59.2-17.9-110.7Z"/><path fill="#263238" d="M51.4 281.3v-.2c-2.1-26.3-6.8-52.5-14.8-77.8 0-.1-.1-.1-.1 0 3 11.3 5.7 22.7 8 34.1-2-2-4.6-3.2-7.3-4.1-.1 0-.1.1 0 .1 2.8 1.2 5.5 2.6 7.5 5 .4 2.2.9 4.5 1.3 6.7-3.4-3.8-8.1-5.7-12.9-7.5-.1 0-.1.1 0 .1 4.9 2 9.8 4.6 13.2 8.8 1.2 6.4 2.2 12.9 3.1 19.3-2.5-2.6-5.6-4.4-9.1-5.2-.1 0-.2.1-.1.2 3.6 1 6.7 3.1 9.2 5.9h.1c.3 2.3.6 4.6.9 6.8-1.9-1.6-4-2.9-6.4-3.8-.1 0-.1.1 0 .1 2.4 1 4.5 2.5 6.4 4.2h.1c.3 2.2.5 4.3.7 6.5-3.5-4.2-7.8-7.3-12.9-9.2-.1 0-.2.1-.1.2 5 2.2 9.4 5.6 12.7 9.8.1.1.2.1.3.1.3 3.3.6 6.7.9 10 0 0 .1.1.1 0-.3-3.3-.5-6.7-.8-10.1Z"/><path fill="#263238" d="M39.1 229.5c-2.6-1.8-6-2.6-9.2-2.9-.1 0-.1.1 0 .1 3.3.5 6 1.7 9.1 3 .1.1.2-.1.1-.2ZM41 270.5c-2.1-1.3-4.5-2-6.9-2.4-.1 0-.1.1 0 .1 2.4.4 4.6 1.3 6.8 2.4.1.1.2-.1.1-.1Z"/><path fill="#FFC727" d="M94.3 243.5c-6.4 4.5-12.5 9.6-17.6 15.4-5.5 6.2-9.6 13.2-12.4 21-5.8 16-8.9 33.2-9.2 50.2-.2 9.5.7 18.9 2.7 28.2.1.3.6.2.5-.1-2.5-16.3-2.4-33 .3-49.3 2.6-16 6.7-33.4 16.9-46.4 5.5-7.1 12.4-12.7 19.3-18.4.3-.4-.2-.9-.5-.6Z"/><path fill="#FFC727" d="M57.3 318.6s5.2-8.8 12.9-16.4c7.6-7.6 14.1-13 15-18.1 1-5-7.6-8.8-7.6-8.8s10.6 1.9 13.4-2.5c2.9-4.4 4.3-30.1 4.3-30.1s-19.2 13.7-28.1 32.9c-9 19.2-9.9 43-9.9 43Z"/><path fill="#263238" d="M88.6 249.2c-8.1 7.9-16.2 16.4-21 26.8-1.6 3.6-3 7.3-4.2 11.1-.2.8-.5 1.5-.7 2.3v.1c-2.4 7.8-4 15.8-5.5 23.7 0 .1.1.1.1 0 .8-4 1.7-8 2.8-12.1h.1c1.6-.7 3.3-1.1 5-1.3.1 0 .1-.2 0-.2-1.7.1-3.4.4-5 .9.9-3.6 1.9-7.3 3.1-10.8 3.7-.9 7.6-1.4 11.4-1.5v-.1c-3.8-.2-7.5.2-11.2 1l.6-1.8c2.5-.6 5-1 7.6-1.3v-.1c-2.5.1-5 .3-7.4.9 1-3.1 2.2-6.1 3.4-9.1 1-2.5 2.3-4.8 3.6-7 2.1-.5 4-.9 6.1-1.1.1 0 .1-.1 0-.1-1.9-.1-3.9 0-5.7.6 1-1.6 2.1-3.2 3.2-4.8 4.3-1 8.7-1.8 13.1-1 .1 0 .1-.1 0-.1-4.2-1.1-8.4-.5-12.5.4.5-.6.9-1.2 1.4-1.8 2.6-.8 5.3-1.2 8-1.3.1 0 .1-.1 0-.1-2.5-.2-5.1 0-7.5.7 3.6-4.4 7.5-8.6 11.4-12.7.2-.3 0-.4-.2-.2Z"/><path fill="#263238" d="M88.4 266.7c-1.3-.1-2.5-.3-3.8-.1-.2 0-.1.3 0 .3 1.3 0 2.5-.1 3.8 0 .1 0 .1-.2 0-.2ZM74.6 291.6c-2 0-4 .5-5.9 1.2v.1c2-.5 3.9-.7 5.9-1 .2 0 .2-.3 0-.3ZM70.4 283c-.8 0-1.7.1-2.5.2-.1 0-.1.1 0 .1.8 0 1.7 0 2.5-.1.2 0 .2-.2 0-.2Z"/><path fill="#FFC727" d="M1 270.7c6.2 2.1 12.3 4.9 17.8 8.4 5.9 3.7 10.8 8.5 14.9 14.1 8.4 11.6 14.9 24.8 19.1 38.5 2.3 7.7 3.8 15.5 4.3 23.5 0 .3-.4.3-.4 0-1.8-13.8-5.7-27.3-11.6-39.9-5.8-12.3-13.2-25.5-24.4-33.7-6.1-4.5-13-7.4-19.9-10.4-.4-.1-.2-.6.2-.5Z"/><path fill="#FFC727" d="M48.3 322.9S42 317 34.1 312.6c-7.9-4.4-14.4-7.3-16.4-11.2-2-3.9 4.2-8.9 4.2-8.9s-8.1 4-11.5 1.1C7.1 290.7 0 270.3 0 270.3s18.7 6.7 30.4 20.1c11.7 13.5 17.9 32.5 17.9 32.5Z"/><path fill="#263238" d="M47.3 318.7c-9.4-17.6-21.8-33.5-38.9-43.9 4.5 2.9 8.7 6.2 12.5 9.8-3.5-.1-7 .5-10.1 2.1-.1 0 0 .1.1.1 3.4-1.2 6.7-1.9 10.3-1.7h.1l1.8 1.8c-1.8.1-3.6.3-5.4.7v.1c1.9-.4 3.8-.5 5.7-.5 3.1 3.1 6.1 6.5 8.8 10-1.2-.2-2.6-.1-3.8.3-.1 0-.1.2 0 .1 1.4-.2 2.7-.1 4-.1.5.7 1 1.3 1.5 2-3.8-.2-7.6.1-11.4 1.1-.1 0 0 .1 0 .1 3.9-.8 7.7-1 11.7-.8.5.6.9 1.3 1.4 1.9-2.3-.1-4.5.2-6.8.8-.1 0-.1.2 0 .1 2.3-.5 4.6-.7 7-.5 2 2.8 3.9 5.6 5.8 8.5-1-.2-2-.1-3 .2-.1 0 0 .1 0 .1 1.1-.1 2.1 0 3.2.2 1.7 2.6 3.3 5.2 4.8 7.8.5.1.8-.1.7-.3Z"/><path fill="#263238" d="M32.8 304.1c-1.8-.2-3.7.1-5.4.7v.1c1.8-.3 3.6-.5 5.4-.6.1 0 .1-.2 0-.2ZM16.4 282.7c-.8-.1-1.7 0-2.5.1-.1 0-.1.2 0 .1.8-.1 1.6-.1 2.5-.1.2.1.2-.1 0-.1Z"/><path fill="#455A64" d="M72.4 381H30.2l6-44.1 1.5-11.3h27.2l1.5 11.3 6 44.1Z"/><path fill="#263238" d="M66.4 336.9H36.2l1.5-11.3h27.2l1.5 11.3Z"/><path fill="#455A64" d="M68.8 321.6H33.9v9.6h34.9v-9.6Z"/></g><defs><clipPath id="a"><path fill="#fff" d="M0 0h435.2v419.5H0z"/></clipPath></defs></svg>