<svg width="40" height="40" fill="none" xmlns="http://www.w3.org/2000/svg"><path d="m4.694 9.524 20.264-5.672-1.073-2.224C23.183.183 21.47-.414 20.061.305L1.92 9.524h2.774zM31.017 3.81a2.55 2.55 0 0 0-.733.109l-4.629 1.384-14.136 4.22h23.039l-.866-3.473c-.333-1.354-1.454-2.24-2.675-2.24z" fill="#24CCA7"/><path d="M35.45 10.716H2.25a2.249 2.249 0 0 0-2.17 1.645 2.29 2.29 0 0 0-.08.583v24.828A2.238 2.238 0 0 0 2.246 40h33.2c1.239 0 2.245-.998 2.245-2.228v-6.217H24.364c-2.107 0-3.818-1.698-3.818-3.788V22.81c0-1.025.413-1.956 1.082-2.638a3.791 3.791 0 0 1 2.731-1.145h13.332v-6.084a2.231 2.231 0 0 0-2.241-2.228z" fill="#4A56E2"/><path d="M39.268 21.158a2.247 2.247 0 0 0-1.514-.584h-13.39c-1.24 0-2.246.998-2.246 2.228v4.961a2.238 2.238 0 0 0 2.246 2.228h13.39c.256 0 .499-.045.728-.12.296-.099.561-.26.786-.464.45-.406.732-.994.732-1.645v-4.96c0-.65-.283-1.239-.732-1.644zm-10.215 4.568a1.12 1.12 0 0 1-1.123 1.114h-.745c-.62 0-1.123-.5-1.123-1.114v-.74c0-.357.166-.673.431-.873a1.14 1.14 0 0 1 .692-.241H27.93c.62 0 1.123.499 1.123 1.114v.74z" fill="#4A56E2"/></svg>