<svg width="75" height="18" viewBox="0 0 75 18" fill="none" xmlns="http://www.w3.org/2000/svg">
<path d="M23.13 1.4551L19.0125 17.2501H14.355L11.835 6.8551L9.225 17.2501H4.5675L0.5625 1.4551H4.68L6.9525 12.9526L9.765 1.4551H13.995L16.695 12.9526L18.99 1.4551H23.13Z" fill="black"/>
<path d="M24.2946 10.9501C24.2946 9.6601 24.5345 8.5276 25.0145 7.5526C25.5096 6.5776 26.1771 5.8276 27.0171 5.3026C27.8571 4.7776 28.7946 4.5151 29.8296 4.5151C30.7146 4.5151 31.4871 4.6951 32.1471 5.0551C32.8221 5.4151 33.3396 5.8876 33.6996 6.4726V4.6951H37.5471V17.2501H33.6996V15.4726C33.3246 16.0576 32.7995 16.5301 32.1245 16.8901C31.4646 17.2501 30.6921 17.4301 29.807 17.4301C28.7871 17.4301 27.8571 17.1676 27.0171 16.6426C26.1771 16.1026 25.5096 15.3451 25.0145 14.3701C24.5345 13.3801 24.2946 12.2401 24.2946 10.9501ZM33.6996 10.9726C33.6996 10.0126 33.4296 9.2551 32.8895 8.7001C32.3645 8.1451 31.7196 7.8676 30.9546 7.8676C30.1896 7.8676 29.5371 8.1451 28.9971 8.7001C28.4721 9.2401 28.2096 9.9901 28.2096 10.9501C28.2096 11.9101 28.4721 12.6751 28.9971 13.2451C29.5371 13.8001 30.1896 14.0776 30.9546 14.0776C31.7196 14.0776 32.3645 13.8001 32.8895 13.2451C33.4296 12.6901 33.6996 11.9326 33.6996 10.9726Z" fill="black"/>
<path d="M44.178 0.600098V17.2501H40.3305V0.600098H44.178Z" fill="black"/>
<path d="M50.8138 0.600098V17.2501H46.9663V0.600098H50.8138Z" fill="black"/>
<path d="M65.437 10.7701C65.437 11.1301 65.4145 11.5051 65.3695 11.8951H56.662C56.722 12.6751 56.9695 13.2751 57.4045 13.6951C57.8545 14.1001 58.402 14.3026 59.047 14.3026C60.007 14.3026 60.6745 13.8976 61.0495 13.0876H65.1445C64.9345 13.9126 64.552 14.6551 63.997 15.3151C63.457 15.9751 62.7745 16.4926 61.9495 16.8676C61.1245 17.2426 60.202 17.4301 59.182 17.4301C57.952 17.4301 56.857 17.1676 55.897 16.6426C54.937 16.1176 54.187 15.3676 53.647 14.3926C53.107 13.4176 52.837 12.2776 52.837 10.9726C52.837 9.6676 53.0995 8.5276 53.6245 7.5526C54.1645 6.5776 54.9145 5.8276 55.8745 5.3026C56.8345 4.7776 57.937 4.5151 59.182 4.5151C60.397 4.5151 61.477 4.7701 62.422 5.2801C63.367 5.7901 64.102 6.5176 64.627 7.4626C65.167 8.4076 65.437 9.5101 65.437 10.7701ZM61.4995 9.7576C61.4995 9.0976 61.2745 8.5726 60.8245 8.1826C60.3745 7.7926 59.812 7.5976 59.137 7.5976C58.492 7.5976 57.9445 7.7851 57.4945 8.1601C57.0595 8.5351 56.7895 9.0676 56.6845 9.7576H61.4995Z" fill="black"/>
<path d="M74.4643 13.9876V17.2501H72.5068C71.1118 17.2501 70.0243 16.9126 69.2443 16.2376C68.4643 15.5476 68.0743 14.4301 68.0743 12.8851V7.8901H66.5443V4.6951H68.0743V1.6351H71.9218V4.6951H74.4418V7.8901H71.9218V12.9301C71.9218 13.3051 72.0118 13.5751 72.1918 13.7401C72.3718 13.9051 72.6718 13.9876 73.0918 13.9876H74.4643Z" fill="black"/>
</svg>
